<svg version="1.0" xmlns="http://www.w3.org/2000/svg" width="100%" height="100%" viewBox="0 0 6000 6000" preserveAspectRatio="xMinYMin meet" className="custom-drawn" fill="#000D3E">
    <path fillRule="evenodd" clipRule="evenodd" d="M2947 5879 c-25 -15 -32 -30 -180 -415 -147 -379 -158 -425 -137
-530 49 -236 270 -363 500 -288 180 59 291 282 235 472 -9 29 -74 204 -146
390 -93 243 -137 343 -155 360 -27 24 -85 30 -117 11z m186 -469 c70 -181 130
-349 133 -373 14 -101 -53 -224 -148 -271 -65 -33 -161 -36 -223 -7 -90 42
-158 151 -158 253 0 48 18 104 129 392 71 185 132 336 135 336 3 0 63 -148
132 -330z" />
    <path fillRule="evenodd" clipRule="evenodd" d="M3133 5062 c-7 -4 -16 -28 -22 -52 -11 -51 -58 -100 -94 -100 -62 0
-92 -73 -43 -105 19 -13 32 -14 72 -5 95 21 152 79 174 174 9 40 8 53 -5 72
-16 24 -57 32 -82 16z" />
    <path fillRule="evenodd" clipRule="evenodd" d="M3725 5506 c-69 -38 -85 -62 -85 -130 0 -45 3 -51 48 -92 26 -24 64
-56 85 -71 l39 -27 46 25 c26 13 59 35 74 47 26 22 28 29 28 104 0 43 -4 88
-10 98 -14 27 -106 80 -138 80 -15 0 -54 -15 -87 -34z" />
    <path fillRule="evenodd" clipRule="evenodd" d="M1822 4925 c-40 -13 -80 -29 -88 -36 -10 -8 -14 -35 -14 -95 l0 -85
63 -39 c34 -22 71 -43 82 -46 19 -5 210 73 243 99 6 5 12 24 12 41 0 25 -11
43 -57 87 -74 71 -115 99 -145 98 -12 -1 -56 -11 -96 -24z" />
    <path fillRule="evenodd" clipRule="evenodd" d="M3607 4414 c-94 -47 -112 -61 -138 -102 -49 -77 -41 -95 69 -169 51
-35 103 -63 115 -63 30 0 177 99 188 128 18 47 10 115 -22 182 -17 35 -36 68
-42 72 -26 16 -66 5 -170 -48z" />
    <path fillRule="evenodd" clipRule="evenodd" d="M1133 3824 c-15 -24 -15 -29 -2 -53 14 -24 20 -26 97 -29 l82 -3 0
-362 c0 -424 -4 -407 88 -407 l58 0 290 -672 290 -673 292 -3 292 -2 0 -179
c0 -213 -1 -211 103 -211 l67 0 0 -523 c0 -495 1 -525 18 -540 21 -19 45 -21
73 -7 18 10 19 27 19 540 l0 530 100 0 100 0 0 -405 c0 -389 1 -405 19 -415
31 -16 59 -12 75 12 14 19 16 76 16 415 l0 393 68 0 c103 0 102 -1 102 213 l0
177 292 2 292 3 290 673 291 672 57 0 c92 0 88 -17 88 407 l0 362 82 3 c77 3
83 5 97 29 13 24 13 29 -2 53 l-17 26 -1850 0 -1850 0 -17 -26z m3437 -414 l0
-330 -1570 0 -1570 0 0 330 0 330 1570 0 1570 0 0 -330z m-173 -492 c-13 -29
-133 -308 -268 -620 l-244 -568 -885 0 -885 0 -244 568 c-135 312 -255 591
-268 620 l-23 52 1420 0 1420 0 -23 -52z m-1127 -1448 l0 -130 -270 0 -270 0
0 130 0 130 270 0 270 0 0 -130z" />
    <path fillRule="evenodd" clipRule="evenodd" d="M3107 272 c-13 -14 -17 -39 -17 -104 0 -93 13 -118 61 -118 42 0 49
17 49 120 0 61 -4 100 -12 108 -18 18 -63 14 -81 -6z" />
</svg>