<svg version="1.0" xmlns="http://www.w3.org/2000/svg" width="100%" height="100%" viewBox="224.02 185.85 218.62 294.96" preserveAspectRatio="xMinYMin meet" className="custom-drawn-small" fill="#FFFFFF">
    <g id="g10" transform="matrix(1.3333333,0,0,-1.3333333,0,666.66667)">
        <g id="g12" transform="scale(0.1)">
            <path d="m3299.8 1509.4v20h-1490.2v2036.7h1470.2v-2056.7h20v20-20h20v2076.7c0 5.26-2.14 10.42-5.86 14.14-3.73 3.72-8.88 5.86-14.14 5.86h-1510.2c-5.27 0-10.42-2.14-14.14-5.86-3.73-3.72-5.86-8.88-5.86-14.14v-2076.7c0-5.27 2.13-10.42 5.86-14.14 3.72-3.73 8.87-5.86 14.14-5.86h1510.2c5.26 0 10.41 2.13 14.14 5.86 3.72 3.72 5.86 8.87 5.86 14.14h-20" />
            <path d="m3299.8 1509.4v20h-1490.2v2036.7h1470.2v-2056.7h20v20-20h20v2076.7c0 5.26-2.14 10.42-5.86 14.14-3.73 3.72-8.88 5.86-14.14 5.86h-1510.2c-5.27 0-10.42-2.14-14.14-5.86-3.73-3.72-5.86-8.88-5.86-14.14v-2076.7c0-5.27 2.13-10.42 5.86-14.14 3.72-3.73 8.87-5.86 14.14-5.86h1510.2c5.26 0 10.41 2.13 14.14 5.86 3.72 3.72 5.86 8.87 5.86 14.14h-20" />
            <path d="m3210.3 1433.9h-1490.2v2056.7c0 11.05-8.96 20-20 20-11.05 0-20-8.95-20-20v-2076.7c0-5.27 2.13-10.42 5.86-14.14 3.72-3.73 8.87-5.86 14.14-5.86h1510.2c11.05 0 20 8.96 20 20 0 11.05-8.95 20-20 20" />
            <path d="m1963.1 3442.9c0 19.77-16.04 35.8-35.81 35.8s-35.8-16.03-35.8-35.8c0-19.78 16.03-35.82 35.8-35.82s35.81 16.04 35.81 35.82" />
            <path d="m1926.7 3178.7c0 7.92-6.42 14.34-14.34 14.34-7.93 0-14.35-6.42-14.35-14.34 0-7.93 6.42-14.36 14.35-14.36 7.92 0 14.34 6.43 14.34 14.36" />
            <path d="m1926.7 3059.9c0 7.92-6.42 14.34-14.34 14.34-7.93 0-14.35-6.42-14.35-14.34 0-7.93 6.42-14.36 14.35-14.36 7.92 0 14.34 6.43 14.34 14.36" />
            <path d="m1926.7 2941.2c0 7.93-6.42 14.35-14.34 14.35-7.93 0-14.35-6.42-14.35-14.35 0-7.92 6.42-14.35 14.35-14.35 7.92 0 14.34 6.43 14.34 14.35" />
            <path d="m1926.7 2822.4c0 7.93-6.42 14.35-14.34 14.35-7.93 0-14.35-6.42-14.35-14.35 0-7.92 6.42-14.35 14.35-14.35 7.92 0 14.34 6.43 14.34 14.35" />
            <path d="m1926.7 2703.6c0 7.93-6.42 14.35-14.34 14.35-7.93 0-14.35-6.42-14.35-14.35 0-7.92 6.42-14.35 14.35-14.35 7.92 0 14.34 6.43 14.34 14.35" />
            <path d="m1926.7 2584.8c0 7.93-6.42 14.35-14.34 14.35-7.93 0-14.35-6.42-14.35-14.35 0-7.92 6.42-14.35 14.35-14.35 7.92 0 14.34 6.43 14.34 14.35" />
            <path d="m1926.7 2466c0 7.93-6.42 14.35-14.34 14.35-7.93 0-14.35-6.42-14.35-14.35 0-7.92 6.42-14.35 14.35-14.35 7.92 0 14.34 6.43 14.34 14.35" />
            <path d="m1926.7 2347.2c0 7.93-6.42 14.35-14.34 14.35-7.93 0-14.35-6.42-14.35-14.35 0-7.92 6.42-14.35 14.35-14.35 7.92 0 14.34 6.43 14.34 14.35" />
            <path d="m1926.7 2228.5c0 7.93-6.42 14.35-14.34 14.35-7.93 0-14.35-6.42-14.35-14.35 0-7.92 6.42-14.34 14.35-14.34 7.92 0 14.34 6.42 14.34 14.34" />
            <path d="m1926.7 2109.7c0 7.93-6.42 14.35-14.34 14.35-7.93 0-14.35-6.42-14.35-14.35 0-7.92 6.42-14.34 14.35-14.34 7.92 0 14.34 6.42 14.34 14.34" />
            <path d="m1926.7 1990.9c0 7.93-6.42 14.35-14.34 14.35-7.93 0-14.35-6.42-14.35-14.35 0-7.92 6.42-14.34 14.35-14.34 7.92 0 14.34 6.42 14.34 14.34" />
            <path d="m1926.7 1872.1c0 7.92-6.42 14.35-14.34 14.35-7.93 0-14.35-6.43-14.35-14.35s6.42-14.34 14.35-14.34c7.92 0 14.34 6.42 14.34 14.34" />
            <path d="m1926.7 1753.4c0 7.92-6.42 14.35-14.34 14.35-7.93 0-14.35-6.43-14.35-14.35s6.42-14.34 14.35-14.34c7.92 0 14.34 6.42 14.34 14.34" />
            <path d="m2031.2 3236c0 7.93-6.42 14.36-14.34 14.36-7.93 0-14.36-6.43-14.36-14.36 0-7.92 6.43-14.34 14.36-14.34 7.92 0 14.34 6.42 14.34 14.34" />
            <path d="m2031.2 3117.2c0 7.93-6.42 14.35-14.34 14.35-7.93 0-14.36-6.42-14.36-14.35 0-7.92 6.43-14.34 14.36-14.34 7.92 0 14.34 6.42 14.34 14.34" />
            <path d="m2031.2 2998.4c0 7.93-6.42 14.35-14.34 14.35-7.93 0-14.36-6.42-14.36-14.35 0-7.92 6.43-14.34 14.36-14.34 7.92 0 14.34 6.42 14.34 14.34" />
            <path d="m2031.2 2879.6c0 7.93-6.42 14.35-14.34 14.35-7.93 0-14.36-6.42-14.36-14.35 0-7.92 6.43-14.34 14.36-14.34 7.92 0 14.34 6.42 14.34 14.34" />
            <path d="m2031.2 2760.8c0 7.93-6.42 14.35-14.34 14.35-7.93 0-14.36-6.42-14.36-14.35 0-7.92 6.43-14.34 14.36-14.34 7.92 0 14.34 6.42 14.34 14.34" />
            <path d="m2031.2 2642.1c0 7.92-6.42 14.35-14.34 14.35-7.93 0-14.36-6.43-14.36-14.35s6.43-14.34 14.36-14.34c7.92 0 14.34 6.42 14.34 14.34" />
            <path d="m2031.2 2523.3c0 7.92-6.42 14.34-14.34 14.34-7.93 0-14.36-6.42-14.36-14.34s6.43-14.35 14.36-14.35c7.92 0 14.34 6.43 14.34 14.35" />
            <path d="m2031.2 2404.5c0 7.92-6.42 14.34-14.34 14.34-7.93 0-14.36-6.42-14.36-14.34s6.43-14.35 14.36-14.35c7.92 0 14.34 6.43 14.34 14.35" />
            <path d="m2031.2 2285.7c0 7.92-6.42 14.34-14.34 14.34-7.93 0-14.36-6.42-14.36-14.34 0-7.93 6.43-14.35 14.36-14.35 7.92 0 14.34 6.42 14.34 14.35" />
            <path d="m2031.2 2167c0 7.92-6.42 14.34-14.34 14.34-7.93 0-14.36-6.42-14.36-14.34 0-7.93 6.43-14.35 14.36-14.35 7.92 0 14.34 6.42 14.34 14.35" />
            <path d="m2031.2 2048.2c0 7.92-6.42 14.34-14.34 14.34-7.93 0-14.36-6.42-14.36-14.34 0-7.93 6.43-14.35 14.36-14.35 7.92 0 14.34 6.42 14.34 14.35" />
            <path d="m2031.2 1929.4c0 7.92-6.42 14.34-14.34 14.34-7.93 0-14.36-6.42-14.36-14.34 0-7.93 6.43-14.35 14.36-14.35 7.92 0 14.34 6.42 14.34 14.35" />
            <path d="m2031.2 1810.6c0 7.92-6.42 14.35-14.34 14.35-7.93 0-14.36-6.43-14.36-14.35 0-7.93 6.43-14.36 14.36-14.36 7.92 0 14.34 6.43 14.34 14.36" />
            <path d="m2135.6 3178.7c0 7.92-6.43 14.34-14.36 14.34-7.92 0-14.34-6.42-14.34-14.34 0-7.93 6.42-14.36 14.34-14.36 7.93 0 14.36 6.43 14.36 14.36" />
            <path d="m2135.6 3059.9c0 7.92-6.43 14.34-14.36 14.34-7.92 0-14.34-6.42-14.34-14.34 0-7.93 6.42-14.36 14.34-14.36 7.93 0 14.36 6.43 14.36 14.36" />
            <path d="m2135.6 2941.2c0 7.93-6.43 14.35-14.36 14.35-7.92 0-14.34-6.42-14.34-14.35 0-7.92 6.42-14.35 14.34-14.35 7.93 0 14.36 6.43 14.36 14.35" />
            <path d="m2135.6 2822.4c0 7.93-6.43 14.35-14.36 14.35-7.92 0-14.34-6.42-14.34-14.35 0-7.92 6.42-14.35 14.34-14.35 7.93 0 14.36 6.43 14.36 14.35" />
            <path d="m2135.6 2703.6c0 7.93-6.43 14.35-14.36 14.35-7.92 0-14.34-6.42-14.34-14.35 0-7.92 6.42-14.35 14.34-14.35 7.93 0 14.36 6.43 14.36 14.35" />
            <path d="m2135.6 2584.8c0 7.93-6.43 14.35-14.36 14.35-7.92 0-14.34-6.42-14.34-14.35 0-7.92 6.42-14.35 14.34-14.35 7.93 0 14.36 6.43 14.36 14.35" />
            <path d="m2135.6 2466c0 7.93-6.43 14.35-14.36 14.35-7.92 0-14.34-6.42-14.34-14.35 0-7.92 6.42-14.35 14.34-14.35 7.93 0 14.36 6.43 14.36 14.35" />
            <path d="m2135.6 2347.2c0 7.93-6.43 14.35-14.36 14.35-7.92 0-14.34-6.42-14.34-14.35 0-7.92 6.42-14.35 14.34-14.35 7.93 0 14.36 6.43 14.36 14.35" />
            <path d="m2135.6 2228.5c0 7.93-6.43 14.35-14.36 14.35-7.92 0-14.34-6.42-14.34-14.35 0-7.92 6.42-14.34 14.34-14.34 7.93 0 14.36 6.42 14.36 14.34" />
            <path d="m2135.6 2109.7c0 7.93-6.43 14.35-14.36 14.35-7.92 0-14.34-6.42-14.34-14.35 0-7.92 6.42-14.34 14.34-14.34 7.93 0 14.36 6.42 14.36 14.34" />
            <path d="m2135.6 1990.9c0 7.93-6.43 14.35-14.36 14.35-7.92 0-14.34-6.42-14.34-14.35 0-7.92 6.42-14.34 14.34-14.34 7.93 0 14.36 6.42 14.36 14.34" />
            <path d="m2135.6 1872.1c0 7.92-6.43 14.35-14.36 14.35-7.92 0-14.34-6.43-14.34-14.35s6.42-14.34 14.34-14.34c7.93 0 14.36 6.42 14.36 14.34" />
            <path d="m2135.6 1753.4c0 7.92-6.43 14.35-14.36 14.35-7.92 0-14.34-6.43-14.34-14.35s6.42-14.34 14.34-14.34c7.93 0 14.36 6.42 14.36 14.34" />
            <path d="m2240 3236c0 7.93-6.42 14.36-14.35 14.36-7.92 0-14.35-6.43-14.35-14.36 0-7.92 6.43-14.34 14.35-14.34 7.93 0 14.35 6.42 14.35 14.34" />
            <path d="m2240 3117.2c0 7.93-6.42 14.35-14.35 14.35-7.92 0-14.35-6.42-14.35-14.35 0-7.92 6.43-14.34 14.35-14.34 7.93 0 14.35 6.42 14.35 14.34" />
            <path d="m2240 2998.4c0 7.93-6.42 14.35-14.35 14.35-7.92 0-14.35-6.42-14.35-14.35 0-7.92 6.43-14.34 14.35-14.34 7.93 0 14.35 6.42 14.35 14.34" />
            <path d="m2240 2879.6c0 7.93-6.42 14.35-14.35 14.35-7.92 0-14.35-6.42-14.35-14.35 0-7.92 6.43-14.34 14.35-14.34 7.93 0 14.35 6.42 14.35 14.34" />
            <path d="m2240 2760.8c0 7.93-6.42 14.35-14.35 14.35-7.92 0-14.35-6.42-14.35-14.35 0-7.92 6.43-14.34 14.35-14.34 7.93 0 14.35 6.42 14.35 14.34" />
            <path d="m2240 2642.1c0 7.92-6.42 14.35-14.35 14.35-7.92 0-14.35-6.43-14.35-14.35s6.43-14.34 14.35-14.34c7.93 0 14.35 6.42 14.35 14.34" />
            <path d="m2240 2523.3c0 7.92-6.42 14.34-14.35 14.34-7.92 0-14.35-6.42-14.35-14.34s6.43-14.35 14.35-14.35c7.93 0 14.35 6.43 14.35 14.35" />
            <path d="m2240 2404.5c0 7.92-6.42 14.34-14.35 14.34-7.92 0-14.35-6.42-14.35-14.34s6.43-14.35 14.35-14.35c7.93 0 14.35 6.43 14.35 14.35" />
            <path d="m2240 2285.7c0 7.92-6.42 14.34-14.35 14.34-7.92 0-14.35-6.42-14.35-14.34 0-7.93 6.43-14.35 14.35-14.35 7.93 0 14.35 6.42 14.35 14.35" />
            <path d="m2240 2167c0 7.92-6.42 14.34-14.35 14.34-7.92 0-14.35-6.42-14.35-14.34 0-7.93 6.43-14.35 14.35-14.35 7.93 0 14.35 6.42 14.35 14.35" />
            <path d="m2240 2048.2c0 7.92-6.42 14.34-14.35 14.34-7.92 0-14.35-6.42-14.35-14.34 0-7.93 6.43-14.35 14.35-14.35 7.93 0 14.35 6.42 14.35 14.35" />
            <path d="m2240 1929.4c0 7.92-6.42 14.34-14.35 14.34-7.92 0-14.35-6.42-14.35-14.34 0-7.93 6.43-14.35 14.35-14.35 7.93 0 14.35 6.42 14.35 14.35" />
            <path d="m2240 1810.6c0 7.92-6.42 14.35-14.35 14.35-7.92 0-14.35-6.43-14.35-14.35 0-7.93 6.43-14.36 14.35-14.36 7.93 0 14.35 6.43 14.35 14.36" />
            <path d="m2344.5 3178.7c0 7.92-6.42 14.34-14.35 14.34-7.92 0-14.35-6.42-14.35-14.34 0-7.93 6.43-14.36 14.35-14.36 7.93 0 14.35 6.43 14.35 14.36" />
            <path d="m2344.5 3059.9c0 7.92-6.42 14.34-14.35 14.34-7.92 0-14.35-6.42-14.35-14.34 0-7.93 6.43-14.36 14.35-14.36 7.93 0 14.35 6.43 14.35 14.36" />
            <path d="m2344.5 2941.2c0 7.93-6.42 14.35-14.35 14.35-7.92 0-14.35-6.42-14.35-14.35 0-7.92 6.43-14.35 14.35-14.35 7.93 0 14.35 6.43 14.35 14.35" />
            <path d="m2344.5 2822.4c0 7.93-6.42 14.35-14.35 14.35-7.92 0-14.35-6.42-14.35-14.35 0-7.92 6.43-14.35 14.35-14.35 7.93 0 14.35 6.43 14.35 14.35" />
            <path d="m2344.5 2703.6c0 7.93-6.42 14.35-14.35 14.35-7.92 0-14.35-6.42-14.35-14.35 0-7.92 6.43-14.35 14.35-14.35 7.93 0 14.35 6.43 14.35 14.35" />
            <path d="m2344.5 2584.8c0 7.93-6.42 14.35-14.35 14.35-7.92 0-14.35-6.42-14.35-14.35 0-7.92 6.43-14.35 14.35-14.35 7.93 0 14.35 6.43 14.35 14.35" />
            <path d="m2344.5 2466c0 7.93-6.42 14.35-14.35 14.35-7.92 0-14.35-6.42-14.35-14.35 0-7.92 6.43-14.35 14.35-14.35 7.93 0 14.35 6.43 14.35 14.35" />
            <path d="m2344.5 2347.2c0 7.93-6.42 14.35-14.35 14.35-7.92 0-14.35-6.42-14.35-14.35 0-7.92 6.43-14.35 14.35-14.35 7.93 0 14.35 6.43 14.35 14.35" />
            <path d="m2344.5 2228.5c0 7.93-6.42 14.35-14.35 14.35-7.92 0-14.35-6.42-14.35-14.35 0-7.92 6.43-14.34 14.35-14.34 7.93 0 14.35 6.42 14.35 14.34" />
            <path d="m2344.5 2109.7c0 7.93-6.42 14.35-14.35 14.35-7.92 0-14.35-6.42-14.35-14.35 0-7.92 6.43-14.34 14.35-14.34 7.93 0 14.35 6.42 14.35 14.34" />
            <path d="m2344.5 1990.9c0 7.93-6.42 14.35-14.35 14.35-7.92 0-14.35-6.42-14.35-14.35 0-7.92 6.43-14.34 14.35-14.34 7.93 0 14.35 6.42 14.35 14.34" />
            <path d="m2344.5 1872.1c0 7.92-6.42 14.35-14.35 14.35-7.92 0-14.35-6.43-14.35-14.35s6.43-14.34 14.35-14.34c7.93 0 14.35 6.42 14.35 14.34" />
            <path d="m2344.5 1753.4c0 7.92-6.42 14.35-14.35 14.35-7.92 0-14.35-6.43-14.35-14.35s6.43-14.34 14.35-14.34c7.93 0 14.35 6.42 14.35 14.34" />
            <path d="m2448.9 3236c0 7.93-6.43 14.36-14.35 14.36s-14.34-6.43-14.34-14.36c0-7.92 6.42-14.34 14.34-14.34s14.35 6.42 14.35 14.34" />
            <path d="m2448.9 3117.2c0 7.93-6.43 14.35-14.35 14.35s-14.34-6.42-14.34-14.35c0-7.92 6.42-14.34 14.34-14.34s14.35 6.42 14.35 14.34" />
            <path d="m2448.9 2998.4c0 7.93-6.43 14.35-14.35 14.35s-14.34-6.42-14.34-14.35c0-7.92 6.42-14.34 14.34-14.34s14.35 6.42 14.35 14.34" />
            <path d="m2448.9 2879.6c0 7.93-6.43 14.35-14.35 14.35s-14.34-6.42-14.34-14.35c0-7.92 6.42-14.34 14.34-14.34s14.35 6.42 14.35 14.34" />
            <path d="m2448.9 2760.8c0 7.93-6.43 14.35-14.35 14.35s-14.34-6.42-14.34-14.35c0-7.92 6.42-14.34 14.34-14.34s14.35 6.42 14.35 14.34" />
            <path d="m2448.9 2642.1c0 7.92-6.43 14.35-14.35 14.35s-14.34-6.43-14.34-14.35 6.42-14.34 14.34-14.34 14.35 6.42 14.35 14.34" />
            <path d="m2448.9 2523.3c0 7.92-6.43 14.34-14.35 14.34s-14.34-6.42-14.34-14.34 6.42-14.35 14.34-14.35 14.35 6.43 14.35 14.35" />
            <path d="m2448.9 2404.5c0 7.92-6.43 14.34-14.35 14.34s-14.34-6.42-14.34-14.34 6.42-14.35 14.34-14.35 14.35 6.43 14.35 14.35" />
            <path d="m2448.9 2285.7c0 7.92-6.43 14.34-14.35 14.34s-14.34-6.42-14.34-14.34c0-7.93 6.42-14.35 14.34-14.35s14.35 6.42 14.35 14.35" />
            <path d="m2448.9 2167c0 7.92-6.43 14.34-14.35 14.34s-14.34-6.42-14.34-14.34c0-7.93 6.42-14.35 14.34-14.35s14.35 6.42 14.35 14.35" />
            <path d="m2448.9 2048.2c0 7.92-6.43 14.34-14.35 14.34s-14.34-6.42-14.34-14.34c0-7.93 6.42-14.35 14.34-14.35s14.35 6.42 14.35 14.35" />
            <path d="m2448.9 1929.4c0 7.92-6.43 14.34-14.35 14.34s-14.34-6.42-14.34-14.34c0-7.93 6.42-14.35 14.34-14.35s14.35 6.42 14.35 14.35" />
            <path d="m2448.9 1810.6c0 7.92-6.43 14.35-14.35 14.35s-14.34-6.43-14.34-14.35c0-7.93 6.42-14.36 14.34-14.36s14.35 6.43 14.35 14.36" />
            <path d="m2553.3 3178.7c0 7.92-6.42 14.34-14.34 14.34-7.93 0-14.35-6.42-14.35-14.34 0-7.93 6.42-14.36 14.35-14.36 7.92 0 14.34 6.43 14.34 14.36" />
            <path d="m2553.3 3059.9c0 7.92-6.42 14.34-14.34 14.34-7.93 0-14.35-6.42-14.35-14.34 0-7.93 6.42-14.36 14.35-14.36 7.92 0 14.34 6.43 14.34 14.36" />
            <path d="m2553.3 2941.2c0 7.93-6.42 14.35-14.34 14.35-7.93 0-14.35-6.42-14.35-14.35 0-7.92 6.42-14.35 14.35-14.35 7.92 0 14.34 6.43 14.34 14.35" />
            <path d="m2553.3 2822.4c0 7.93-6.42 14.35-14.34 14.35-7.93 0-14.35-6.42-14.35-14.35 0-7.92 6.42-14.35 14.35-14.35 7.92 0 14.34 6.43 14.34 14.35" />
            <path d="m2553.3 2703.6c0 7.93-6.42 14.35-14.34 14.35-7.93 0-14.35-6.42-14.35-14.35 0-7.92 6.42-14.35 14.35-14.35 7.92 0 14.34 6.43 14.34 14.35" />
            <path d="m2553.3 2584.8c0 7.93-6.42 14.35-14.34 14.35-7.93 0-14.35-6.42-14.35-14.35 0-7.92 6.42-14.35 14.35-14.35 7.92 0 14.34 6.43 14.34 14.35" />
            <path d="m2553.3 2466c0 7.93-6.42 14.35-14.34 14.35-7.93 0-14.35-6.42-14.35-14.35 0-7.92 6.42-14.35 14.35-14.35 7.92 0 14.34 6.43 14.34 14.35" />
            <path d="m2553.3 2347.2c0 7.93-6.42 14.35-14.34 14.35-7.93 0-14.35-6.42-14.35-14.35 0-7.92 6.42-14.35 14.35-14.35 7.92 0 14.34 6.43 14.34 14.35" />
            <path d="m2553.3 2228.5c0 7.93-6.42 14.35-14.34 14.35-7.93 0-14.35-6.42-14.35-14.35 0-7.92 6.42-14.34 14.35-14.34 7.92 0 14.34 6.42 14.34 14.34" />
            <path d="m2553.3 2109.7c0 7.93-6.42 14.35-14.34 14.35-7.93 0-14.35-6.42-14.35-14.35 0-7.92 6.42-14.34 14.35-14.34 7.92 0 14.34 6.42 14.34 14.34" />
            <path d="m2553.3 1990.9c0 7.93-6.42 14.35-14.34 14.35-7.93 0-14.35-6.42-14.35-14.35 0-7.92 6.42-14.34 14.35-14.34 7.92 0 14.34 6.42 14.34 14.34" />
            <path d="m2553.3 1872.1c0 7.92-6.42 14.35-14.34 14.35-7.93 0-14.35-6.43-14.35-14.35s6.42-14.34 14.35-14.34c7.92 0 14.34 6.42 14.34 14.34" />
            <path d="m2553.3 1753.4c0 7.92-6.42 14.35-14.34 14.35-7.93 0-14.35-6.43-14.35-14.35s6.42-14.34 14.35-14.34c7.92 0 14.34 6.42 14.34 14.34" />
            <path d="m2657.8 3236c0 7.93-6.43 14.36-14.35 14.36-7.93 0-14.35-6.43-14.35-14.36 0-7.92 6.42-14.34 14.35-14.34 7.92 0 14.35 6.42 14.35 14.34" />
            <path d="m2657.8 3117.2c0 7.93-6.43 14.35-14.35 14.35-7.93 0-14.35-6.42-14.35-14.35 0-7.92 6.42-14.34 14.35-14.34 7.92 0 14.35 6.42 14.35 14.34" />
            <path d="m2657.8 2998.4c0 7.93-6.43 14.35-14.35 14.35-7.93 0-14.35-6.42-14.35-14.35 0-7.92 6.42-14.34 14.35-14.34 7.92 0 14.35 6.42 14.35 14.34" />
            <path d="m2657.8 2879.6c0 7.93-6.43 14.35-14.35 14.35-7.93 0-14.35-6.42-14.35-14.35 0-7.92 6.42-14.34 14.35-14.34 7.92 0 14.35 6.42 14.35 14.34" />
            <path d="m2657.8 2760.8c0 7.93-6.43 14.35-14.35 14.35-7.93 0-14.35-6.42-14.35-14.35 0-7.92 6.42-14.34 14.35-14.34 7.92 0 14.35 6.42 14.35 14.34" />
            <path d="m2657.8 2642.1c0 7.92-6.43 14.35-14.35 14.35-7.93 0-14.35-6.43-14.35-14.35s6.42-14.34 14.35-14.34c7.92 0 14.35 6.42 14.35 14.34" />
            <path d="m2657.8 2523.3c0 7.92-6.43 14.34-14.35 14.34-7.93 0-14.35-6.42-14.35-14.34s6.42-14.35 14.35-14.35c7.92 0 14.35 6.43 14.35 14.35" />
            <path d="m2657.8 2404.5c0 7.92-6.43 14.34-14.35 14.34-7.93 0-14.35-6.42-14.35-14.34s6.42-14.35 14.35-14.35c7.92 0 14.35 6.43 14.35 14.35" />
            <path d="m2657.8 2285.7c0 7.92-6.43 14.34-14.35 14.34-7.93 0-14.35-6.42-14.35-14.34 0-7.93 6.42-14.35 14.35-14.35 7.92 0 14.35 6.42 14.35 14.35" />
            <path d="m2657.8 2167c0 7.92-6.43 14.34-14.35 14.34-7.93 0-14.35-6.42-14.35-14.34 0-7.93 6.42-14.35 14.35-14.35 7.92 0 14.35 6.42 14.35 14.35" />
            <path d="m2657.8 2048.2c0 7.92-6.43 14.34-14.35 14.34-7.93 0-14.35-6.42-14.35-14.34 0-7.93 6.42-14.35 14.35-14.35 7.92 0 14.35 6.42 14.35 14.35" />
            <path d="m2657.8 1929.4c0 7.92-6.43 14.34-14.35 14.34-7.93 0-14.35-6.42-14.35-14.34 0-7.93 6.42-14.35 14.35-14.35 7.92 0 14.35 6.42 14.35 14.35" />
            <path d="m2657.8 1810.6c0 7.92-6.43 14.35-14.35 14.35-7.93 0-14.35-6.43-14.35-14.35 0-7.93 6.42-14.36 14.35-14.36 7.92 0 14.35 6.43 14.35 14.36" />
            <path d="m2762.2 3178.7c0 7.92-6.43 14.34-14.35 14.34-7.93 0-14.35-6.42-14.35-14.34 0-7.93 6.42-14.36 14.35-14.36 7.92 0 14.35 6.43 14.35 14.36" />
            <path d="m2762.2 3059.9c0 7.92-6.43 14.34-14.35 14.34-7.93 0-14.35-6.42-14.35-14.34 0-7.93 6.42-14.36 14.35-14.36 7.92 0 14.35 6.43 14.35 14.36" />
            <path d="m2762.2 2941.2c0 7.93-6.43 14.35-14.35 14.35-7.93 0-14.35-6.42-14.35-14.35 0-7.92 6.42-14.35 14.35-14.35 7.92 0 14.35 6.43 14.35 14.35" />
            <path d="m2762.2 2822.4c0 7.93-6.43 14.35-14.35 14.35-7.93 0-14.35-6.42-14.35-14.35 0-7.92 6.42-14.35 14.35-14.35 7.92 0 14.35 6.43 14.35 14.35" />
            <path d="m2762.2 2703.6c0 7.93-6.43 14.35-14.35 14.35-7.93 0-14.35-6.42-14.35-14.35 0-7.92 6.42-14.35 14.35-14.35 7.92 0 14.35 6.43 14.35 14.35" />
            <path d="m2762.2 2584.8c0 7.93-6.43 14.35-14.35 14.35-7.93 0-14.35-6.42-14.35-14.35 0-7.92 6.42-14.35 14.35-14.35 7.92 0 14.35 6.43 14.35 14.35" />
            <path d="m2762.2 2466c0 7.93-6.43 14.35-14.35 14.35-7.93 0-14.35-6.42-14.35-14.35 0-7.92 6.42-14.35 14.35-14.35 7.92 0 14.35 6.43 14.35 14.35" />
            <path d="m2762.2 2347.2c0 7.93-6.43 14.35-14.35 14.35-7.93 0-14.35-6.42-14.35-14.35 0-7.92 6.42-14.35 14.35-14.35 7.92 0 14.35 6.43 14.35 14.35" />
            <path d="m2762.2 2228.5c0 7.93-6.43 14.35-14.35 14.35-7.93 0-14.35-6.42-14.35-14.35 0-7.92 6.42-14.34 14.35-14.34 7.92 0 14.35 6.42 14.35 14.34" />
            <path d="m2762.2 2109.7c0 7.93-6.43 14.35-14.35 14.35-7.93 0-14.35-6.42-14.35-14.35 0-7.92 6.42-14.34 14.35-14.34 7.92 0 14.35 6.42 14.35 14.34" />
            <path d="m2762.2 1990.9c0 7.93-6.43 14.35-14.35 14.35-7.93 0-14.35-6.42-14.35-14.35 0-7.92 6.42-14.34 14.35-14.34 7.92 0 14.35 6.42 14.35 14.34" />
            <path d="m2762.2 1872.1c0 7.92-6.43 14.35-14.35 14.35-7.93 0-14.35-6.43-14.35-14.35s6.42-14.34 14.35-14.34c7.92 0 14.35 6.42 14.35 14.34" />
            <path d="m2762.2 1753.4c0 7.92-6.43 14.35-14.35 14.35-7.93 0-14.35-6.43-14.35-14.35s6.42-14.34 14.35-14.34c7.92 0 14.35 6.42 14.35 14.34" />
            <path d="m2866.6 3236c0 7.93-6.42 14.36-14.35 14.36-7.92 0-14.35-6.43-14.35-14.36 0-7.92 6.43-14.34 14.35-14.34 7.93 0 14.35 6.42 14.35 14.34" />
            <path d="m2866.6 3117.2c0 7.93-6.42 14.35-14.35 14.35-7.92 0-14.35-6.42-14.35-14.35 0-7.92 6.43-14.34 14.35-14.34 7.93 0 14.35 6.42 14.35 14.34" />
            <path d="m2866.6 2998.4c0 7.93-6.42 14.35-14.35 14.35-7.92 0-14.35-6.42-14.35-14.35 0-7.92 6.43-14.34 14.35-14.34 7.93 0 14.35 6.42 14.35 14.34" />
            <path d="m2866.6 2879.6c0 7.93-6.42 14.35-14.35 14.35-7.92 0-14.35-6.42-14.35-14.35 0-7.92 6.43-14.34 14.35-14.34 7.93 0 14.35 6.42 14.35 14.34" />
            <path d="m2866.6 2760.8c0 7.93-6.42 14.35-14.35 14.35-7.92 0-14.35-6.42-14.35-14.35 0-7.92 6.43-14.34 14.35-14.34 7.93 0 14.35 6.42 14.35 14.34" />
            <path d="m2866.6 2642.1c0 7.92-6.42 14.35-14.35 14.35-7.92 0-14.35-6.43-14.35-14.35s6.43-14.34 14.35-14.34c7.93 0 14.35 6.42 14.35 14.34" />
            <path d="m2866.6 2523.3c0 7.92-6.42 14.34-14.35 14.34-7.92 0-14.35-6.42-14.35-14.34s6.43-14.35 14.35-14.35c7.93 0 14.35 6.43 14.35 14.35" />
            <path d="m2866.6 2404.5c0 7.92-6.42 14.34-14.35 14.34-7.92 0-14.35-6.42-14.35-14.34s6.43-14.35 14.35-14.35c7.93 0 14.35 6.43 14.35 14.35" />
            <path d="m2866.6 2285.7c0 7.92-6.42 14.34-14.35 14.34-7.92 0-14.35-6.42-14.35-14.34 0-7.93 6.43-14.35 14.35-14.35 7.93 0 14.35 6.42 14.35 14.35" />
            <path d="m2866.6 2167c0 7.92-6.42 14.34-14.35 14.34-7.92 0-14.35-6.42-14.35-14.34 0-7.93 6.43-14.35 14.35-14.35 7.93 0 14.35 6.42 14.35 14.35" />
            <path d="m2866.6 2048.2c0 7.92-6.42 14.34-14.35 14.34-7.92 0-14.35-6.42-14.35-14.34 0-7.93 6.43-14.35 14.35-14.35 7.93 0 14.35 6.42 14.35 14.35" />
            <path d="m2866.6 1929.4c0 7.92-6.42 14.34-14.35 14.34-7.92 0-14.35-6.42-14.35-14.34 0-7.93 6.43-14.35 14.35-14.35 7.93 0 14.35 6.42 14.35 14.35" />
            <path d="m2866.6 1810.6c0 7.92-6.42 14.35-14.35 14.35-7.92 0-14.35-6.43-14.35-14.35 0-7.93 6.43-14.36 14.35-14.36 7.93 0 14.35 6.43 14.35 14.36" />
            <path d="m2971 3178.7c0 7.92-6.42 14.34-14.35 14.34-7.92 0-14.34-6.42-14.34-14.34 0-7.93 6.42-14.36 14.34-14.36 7.93 0 14.35 6.43 14.35 14.36" />
            <path d="m2971 3059.9c0 7.92-6.42 14.34-14.35 14.34-7.92 0-14.34-6.42-14.34-14.34 0-7.93 6.42-14.36 14.34-14.36 7.93 0 14.35 6.43 14.35 14.36" />
            <path d="m2971 2941.2c0 7.93-6.42 14.35-14.35 14.35-7.92 0-14.34-6.42-14.34-14.35 0-7.92 6.42-14.35 14.34-14.35 7.93 0 14.35 6.43 14.35 14.35" />
            <path d="m2971 2822.4c0 7.93-6.42 14.35-14.35 14.35-7.92 0-14.34-6.42-14.34-14.35 0-7.92 6.42-14.35 14.34-14.35 7.93 0 14.35 6.43 14.35 14.35" />
            <path d="m2971 2703.6c0 7.93-6.42 14.35-14.35 14.35-7.92 0-14.34-6.42-14.34-14.35 0-7.92 6.42-14.35 14.34-14.35 7.93 0 14.35 6.43 14.35 14.35" />
            <path d="m2971 2584.8c0 7.93-6.42 14.35-14.35 14.35-7.92 0-14.34-6.42-14.34-14.35 0-7.92 6.42-14.35 14.34-14.35 7.93 0 14.35 6.43 14.35 14.35" />
            <path d="m2971 2466c0 7.93-6.42 14.35-14.35 14.35-7.92 0-14.34-6.42-14.34-14.35 0-7.92 6.42-14.35 14.34-14.35 7.93 0 14.35 6.43 14.35 14.35" />
            <path d="m2971 2347.2c0 7.93-6.42 14.35-14.35 14.35-7.92 0-14.34-6.42-14.34-14.35 0-7.92 6.42-14.35 14.34-14.35 7.93 0 14.35 6.43 14.35 14.35" />
            <path d="m2971 2228.5c0 7.93-6.42 14.35-14.35 14.35-7.92 0-14.34-6.42-14.34-14.35 0-7.92 6.42-14.34 14.34-14.34 7.93 0 14.35 6.42 14.35 14.34" />
            <path d="m2971 2109.7c0 7.93-6.42 14.35-14.35 14.35-7.92 0-14.34-6.42-14.34-14.35 0-7.92 6.42-14.34 14.34-14.34 7.93 0 14.35 6.42 14.35 14.34" />
            <path d="m2971 1990.9c0 7.93-6.42 14.35-14.35 14.35-7.92 0-14.34-6.42-14.34-14.35 0-7.92 6.42-14.34 14.34-14.34 7.93 0 14.35 6.42 14.35 14.34" />
            <path d="m2971 1872.1c0 7.92-6.42 14.35-14.35 14.35-7.92 0-14.34-6.43-14.34-14.35s6.42-14.34 14.34-14.34c7.93 0 14.35 6.42 14.35 14.34" />
            <path d="m2971 1753.4c0 7.92-6.42 14.35-14.35 14.35-7.92 0-14.34-6.43-14.34-14.35s6.42-14.34 14.34-14.34c7.93 0 14.35 6.42 14.35 14.34" />
            <path d="m3075.5 3236c0 7.93-6.42 14.36-14.34 14.36s-14.35-6.43-14.35-14.36c0-7.92 6.43-14.34 14.35-14.34s14.34 6.42 14.34 14.34" />
            <path d="m3075.5 3117.2c0 7.93-6.42 14.35-14.34 14.35s-14.35-6.42-14.35-14.35c0-7.92 6.43-14.34 14.35-14.34s14.34 6.42 14.34 14.34" />
            <path d="m3075.5 2998.4c0 7.93-6.42 14.35-14.34 14.35s-14.35-6.42-14.35-14.35c0-7.92 6.43-14.34 14.35-14.34s14.34 6.42 14.34 14.34" />
            <path d="m3075.5 2879.6c0 7.93-6.42 14.35-14.34 14.35s-14.35-6.42-14.35-14.35c0-7.92 6.43-14.34 14.35-14.34s14.34 6.42 14.34 14.34" />
            <path d="m3075.5 2760.8c0 7.93-6.42 14.35-14.34 14.35s-14.35-6.42-14.35-14.35c0-7.92 6.43-14.34 14.35-14.34s14.34 6.42 14.34 14.34" />
            <path d="m3075.5 2642.1c0 7.92-6.42 14.35-14.34 14.35s-14.35-6.43-14.35-14.35 6.43-14.34 14.35-14.34 14.34 6.42 14.34 14.34" />
            <path d="m3075.5 2523.3c0 7.92-6.42 14.34-14.34 14.34s-14.35-6.42-14.35-14.34 6.43-14.35 14.35-14.35 14.34 6.43 14.34 14.35" />
            <path d="m3075.5 2404.5c0 7.92-6.42 14.34-14.34 14.34s-14.35-6.42-14.35-14.34 6.43-14.35 14.35-14.35 14.34 6.43 14.34 14.35" />
            <path d="m3075.5 2285.7c0 7.92-6.42 14.34-14.34 14.34s-14.35-6.42-14.35-14.34c0-7.93 6.43-14.35 14.35-14.35s14.34 6.42 14.34 14.35" />
            <path d="m3075.5 2167c0 7.92-6.42 14.34-14.34 14.34s-14.35-6.42-14.35-14.34c0-7.93 6.43-14.35 14.35-14.35s14.34 6.42 14.34 14.35" />
            <path d="m3075.5 2048.2c0 7.92-6.42 14.34-14.34 14.34s-14.35-6.42-14.35-14.34c0-7.93 6.43-14.35 14.35-14.35s14.34 6.42 14.34 14.35" />
            <path d="m3075.5 1929.4c0 7.92-6.42 14.34-14.34 14.34s-14.35-6.42-14.35-14.34c0-7.93 6.43-14.35 14.35-14.35s14.34 6.42 14.34 14.35" />
            <path d="m3075.5 1810.6c0 7.92-6.42 14.35-14.34 14.35s-14.35-6.43-14.35-14.35c0-7.93 6.43-14.36 14.35-14.36s14.34 6.43 14.34 14.36" />
            <path d="m3179.9 3178.7c0 7.92-6.42 14.34-14.34 14.34-7.93 0-14.35-6.42-14.35-14.34 0-7.93 6.42-14.36 14.35-14.36 7.92 0 14.34 6.43 14.34 14.36" />
            <path d="m3179.9 3059.9c0 7.92-6.42 14.34-14.34 14.34-7.93 0-14.35-6.42-14.35-14.34 0-7.93 6.42-14.36 14.35-14.36 7.92 0 14.34 6.43 14.34 14.36" />
            <path d="m3179.9 2941.2c0 7.93-6.42 14.35-14.34 14.35-7.93 0-14.35-6.42-14.35-14.35 0-7.92 6.42-14.35 14.35-14.35 7.92 0 14.34 6.43 14.34 14.35" />
            <path d="m3179.9 2822.4c0 7.93-6.42 14.35-14.34 14.35-7.93 0-14.35-6.42-14.35-14.35 0-7.92 6.42-14.35 14.35-14.35 7.92 0 14.34 6.43 14.34 14.35" />
            <path d="m3179.9 2703.6c0 7.93-6.42 14.35-14.34 14.35-7.93 0-14.35-6.42-14.35-14.35 0-7.92 6.42-14.35 14.35-14.35 7.92 0 14.34 6.43 14.34 14.35" />
            <path d="m3179.9 2584.8c0 7.93-6.42 14.35-14.34 14.35-7.93 0-14.35-6.42-14.35-14.35 0-7.92 6.42-14.35 14.35-14.35 7.92 0 14.34 6.43 14.34 14.35" />
            <path d="m3179.9 2466c0 7.93-6.42 14.35-14.34 14.35-7.93 0-14.35-6.42-14.35-14.35 0-7.92 6.42-14.35 14.35-14.35 7.92 0 14.34 6.43 14.34 14.35" />
            <path d="m3179.9 2347.2c0 7.93-6.42 14.35-14.34 14.35-7.93 0-14.35-6.42-14.35-14.35 0-7.92 6.42-14.35 14.35-14.35 7.92 0 14.34 6.43 14.34 14.35" />
            <path d="m3179.9 2228.5c0 7.93-6.42 14.35-14.34 14.35-7.93 0-14.35-6.42-14.35-14.35 0-7.92 6.42-14.34 14.35-14.34 7.92 0 14.34 6.42 14.34 14.34" />
            <path d="m3179.9 2109.7c0 7.93-6.42 14.35-14.34 14.35-7.93 0-14.35-6.42-14.35-14.35 0-7.92 6.42-14.34 14.35-14.34 7.92 0 14.34 6.42 14.34 14.34" />
            <path d="m3179.9 1990.9c0 7.93-6.42 14.35-14.34 14.35-7.93 0-14.35-6.42-14.35-14.35 0-7.92 6.42-14.34 14.35-14.34 7.92 0 14.34 6.42 14.34 14.34" />
            <path d="m3179.9 1872.1c0 7.92-6.42 14.35-14.34 14.35-7.93 0-14.35-6.43-14.35-14.35s6.42-14.34 14.35-14.34c7.92 0 14.34 6.42 14.34 14.34" />
            <path d="m3179.9 1753.4c0 7.92-6.42 14.35-14.34 14.35-7.93 0-14.35-6.43-14.35-14.35s6.42-14.34 14.35-14.34c7.92 0 14.34 6.42 14.34 14.34" />
            <path d="m3178.4 3442.9c0 19.77-16.03 35.8-35.8 35.8s-35.81-16.03-35.81-35.8c0-19.78 16.04-35.82 35.81-35.82s35.8 16.04 35.8 35.82" />
            <path d="m1963.1 1634.7c0 19.78-16.04 35.81-35.81 35.81s-35.8-16.03-35.8-35.81c0-19.76 16.03-35.8 35.8-35.8s35.81 16.04 35.81 35.8" />
            <path d="m3178.4 1634.7c0 19.78-16.03 35.81-35.8 35.81s-35.81-16.03-35.81-35.81c0-19.76 16.04-35.8 35.81-35.8s35.8 16.04 35.8 35.8" />
            <path d="m2607.4 3407.1h20c-0.01 45.67-37 82.66-82.65 82.67-45.67-0.01-82.65-37.01-82.66-82.67 0.01-45.65 36.99-82.64 82.66-82.65 45.65 0.01 82.64 37 82.65 82.65h-40c-0.01-11.83-4.74-22.37-12.49-30.16-7.78-7.75-18.32-12.48-30.16-12.49-11.85 0.01-22.38 4.74-30.17 12.49-7.75 7.79-12.48 18.32-12.49 30.16 0.01 11.85 4.75 22.39 12.49 30.18 7.79 7.75 18.32 12.48 30.17 12.49 11.84-0.01 22.37-4.74 30.16-12.49 7.75-7.79 12.48-18.33 12.49-30.18h20" />
        </g>
    </g>
</svg>