<svg version="1.0" xmlns="http://www.w3.org/2000/svg" width="100%" height="100%" viewBox="0 0 6420 6420" preserveAspectRatio="xMidYMid meet" className="custom-drawn" fill="#FFFFFF">
    <path d="M4938 6345 c-180 -44 -350 -182 -433 -350 -51 -103 -69 -183 -69
-305 0 -126 19 -203 75 -311 78 -149 213 -264 378 -323 79 -28 97 -30 216 -30
114 0 139 3 206 26 174 61 315 181 389 331 55 112 73 191 73 312 0 190 -58
330 -193 466 -69 70 -101 94 -170 127 -47 23 -112 49 -145 57 -74 19 -249 18
-327 0z m297 -110 c198 -50 358 -209 410 -405 19 -72 19 -201 0 -274 -64 -246
-289 -421 -540 -420 -308 0 -555 246 -555 552 0 163 49 282 165 397 140 140
337 197 520 150z" />
    <path d="M5010 6060 c-19 -19 -20 -33 -20 -223 l0 -202 128 -128 c138 -137
165 -152 197 -103 23 35 9 59 -109 176 l-106 105 0 187 c0 175 -1 188 -19 198
-29 15 -49 12 -71 -10z" />
    <path d="M974 5701 c-100 -24 -190 -98 -235 -195 l-29 -62 2 -2575 3 -2574 27
-50 c36 -68 101 -128 173 -162 l60 -28 1929 -3 c2128 -3 1996 -6 2098 59 56
36 99 88 131 156 l22 48 3 2124 c2 1895 1 2127 -13 2148 -17 25 -52 30 -78 11
-16 -12 -17 -158 -19 -2133 -3 -1801 -5 -2124 -17 -2147 -8 -16 -17 -28 -21
-28 -14 0 -664 925 -660 940 8 40 9 3208 1 3231 -8 24 6 48 150 250 87 123
159 233 159 245 0 36 -23 56 -59 52 -31 -3 -44 -18 -186 -218 l-152 -215
-1329 -2 -1329 -3 -340 482 c-187 265 -341 487 -343 493 -2 7 16 21 40 31 41
18 101 19 1557 22 1091 2 1518 5 1528 13 20 18 17 76 -6 89 -23 12 -3017 13
-3067 1z m206 -727 c248 -351 334 -481 331 -497 -2 -12 -6 -732 -8 -1599 -3
-1277 -1 -1584 10 -1615 l13 -38 -333 -470 c-183 -259 -335 -470 -339 -470
-32 0 -32 53 -33 2595 0 1389 2 2535 5 2548 4 12 9 22 13 22 3 -1 157 -215
341 -476z m3054 -536 c14 -20 16 -187 16 -1580 0 -1545 0 -1558 -20 -1578 -20
-20 -33 -20 -1299 -20 -1150 0 -1281 2 -1295 16 -14 14 -16 172 -16 1588 0
1209 3 1575 12 1584 9 9 311 12 1299 12 l1288 0 15 -22z m349 -3754 c180 -255
330 -471 333 -478 16 -41 20 -41 -1991 -41 -1726 0 -1923 2 -1953 16 l-33 15
338 477 337 477 1321 0 1320 -1 328 -465z" />
    <path d="M1962 4158 c-9 -9 -12 -312 -12 -1304 0 -1413 -4 -1317 57 -1317 56
1 53 -67 53 1313 0 1138 -2 1278 -16 1298 -17 24 -62 30 -82 10z" />
    <path d="M2336 4154 c-14 -14 -16 -146 -16 -1303 0 -1405 -4 -1314 55 -1314
59 0 55 -91 55 1313 0 1234 -1 1288 -18 1303 -23 21 -56 22 -76 1z" />
    <path d="M2706 4154 c-14 -14 -16 -146 -16 -1303 0 -1405 -4 -1314 55 -1314
59 0 55 -91 55 1314 0 1407 4 1319 -55 1319 -13 0 -31 -7 -39 -16z" />
    <path d="M3077 4152 c-16 -17 -17 -122 -17 -1298 0 -1385 -3 -1316 53 -1316
61 -1 57 -97 57 1318 0 1268 0 1293 -19 1304 -29 15 -56 12 -74 -8z" />
    <path d="M3445 4147 c-14 -21 -15 -167 -13 -1305 2 -838 6 -1284 13 -1290 25
-24 55 -23 80 2 l25 25 0 1273 c0 1137 -2 1276 -16 1296 -21 30 -69 30 -89 -1z" />
    <path d="M3822 4158 c-9 -9 -12 -312 -12 -1304 0 -1413 -4 -1317 57 -1317 56
1 53 -67 53 1313 0 1138 -2 1278 -16 1298 -17 24 -62 30 -82 10z" />
    <path d="M2865 5390 c-185 -33 -275 -167 -196 -292 22 -34 44 -53 88 -74 53
-27 67 -29 168 -29 94 0 117 3 162 24 63 28 118 86 132 138 39 145 -150 269
-354 233z m172 -125 c80 -34 95 -77 41 -119 -58 -43 -151 -57 -230 -36 -42 12
-98 55 -98 75 0 24 44 65 85 80 53 19 157 19 202 0z" />
</svg>