<svg width="187" height="162" viewBox="0 0 187 162" fill="none" xmlns="http://www.w3.org/2000/svg">
    <g id="Group 52" filter="url(#filter0_d)">
        <g id="aqqasystem">
            <path id="path14" d="M74.5603 140.674L74.442 139.931L19.0948 148.745L7.04903 73.098L61.6534 64.4029L73.8175 140.792L74.5603 140.674L74.442 139.931L74.5603 140.674L75.3031 140.556L63.0208 63.4235C62.9897 63.2282 62.8797 63.0492 62.7195 62.933C62.559 62.8169 62.3551 62.7679 62.1597 62.799L6.06963 71.7306C5.87389 71.7618 5.69527 71.8717 5.57911 72.0319C5.46257 72.1921 5.41398 72.3964 5.44509 72.5917L17.7274 149.724C17.7586 149.92 17.8682 150.098 18.0287 150.214C18.1889 150.331 18.3928 150.38 18.5885 150.349L74.6786 141.417C74.874 141.386 75.0526 141.276 75.1691 141.116C75.2853 140.955 75.3343 140.751 75.3031 140.556L74.5603 140.674Z" fill="#000D3E" />
            <path id="path16" d="M74.5603 140.674L74.442 139.931L19.0948 148.745L7.04903 73.098L61.6534 64.4029L73.8175 140.792L74.5603 140.674L74.442 139.931L74.5603 140.674L75.3031 140.556L63.0208 63.4235C62.9897 63.2282 62.8797 63.0492 62.7195 62.933C62.559 62.8169 62.3551 62.7679 62.1597 62.799L6.06963 71.7306C5.87389 71.7618 5.69527 71.8717 5.57911 72.0319C5.46257 72.1921 5.41398 72.3964 5.44509 72.5917L17.7274 149.724C17.7586 149.92 17.8682 150.098 18.0287 150.214C18.1889 150.331 18.3928 150.38 18.5885 150.349L74.6786 141.417C74.874 141.386 75.0526 141.276 75.1691 141.116C75.2853 140.955 75.3343 140.751 75.3031 140.556L74.5603 140.674Z" fill="#000D3E" />
            <path id="path18" d="M71.6799 144.006L16.3331 152.82L4.16909 76.4307C4.10373 76.0203 3.71801 75.7409 3.30797 75.8062C2.89755 75.8715 2.61807 76.2569 2.68342 76.6673L14.9657 153.799C14.9969 153.995 15.1064 154.174 15.267 154.29C15.4272 154.406 15.6311 154.455 15.8268 154.424L71.9165 145.492C72.3269 145.427 72.6063 145.041 72.5411 144.631C72.4757 144.221 72.0903 143.941 71.6799 144.006" fill="#000D3E" />
            <path id="path20" d="M13.4752 76.7671C13.3583 76.0328 12.6677 75.5323 11.9334 75.6492C11.1991 75.7661 10.6986 76.4563 10.8155 77.1906C10.9325 77.9253 11.6227 78.4262 12.357 78.3093C13.0913 78.1923 13.5922 77.5017 13.4752 76.7671Z" fill="#000D3E" />
            <path id="path22" d="M13.6877 86.7931C13.6408 86.4989 13.3644 86.2984 13.0703 86.3453C12.7757 86.3922 12.5753 86.6686 12.6221 86.9627C12.669 87.2573 12.9455 87.4581 13.24 87.4112C13.5342 87.3644 13.7346 87.0876 13.6877 86.7931Z" fill="#000D3E" />
            <path id="path24" d="M14.3889 91.2052C14.342 90.911 14.0656 90.7105 13.7714 90.7574C13.4769 90.8043 13.2764 91.0807 13.3233 91.3749C13.3702 91.6694 13.6467 91.8702 13.9412 91.8233C14.2353 91.7765 14.4358 91.4997 14.3889 91.2052Z" fill="#000D3E" />
            <path id="path26" d="M15.092 95.6172C15.0451 95.3226 14.7687 95.1222 14.4746 95.169C14.18 95.2159 13.9796 95.4923 14.0265 95.7868C14.0733 96.081 14.3498 96.2819 14.6443 96.235C14.9385 96.1881 15.1389 95.9113 15.092 95.6172Z" fill="#000D3E" />
            <path id="path28" d="M15.7952 100.028C15.7483 99.7338 15.4719 99.5333 15.1777 99.5801C14.8832 99.627 14.6827 99.9034 14.7296 100.198C14.7764 100.492 15.0529 100.693 15.3474 100.646C15.6416 100.599 15.842 100.322 15.7952 100.028Z" fill="#000D3E" />
            <path id="path30" d="M16.4944 104.44C16.4475 104.145 16.1711 103.945 15.8769 103.992C15.5824 104.039 15.3819 104.315 15.4288 104.61C15.4756 104.904 15.7521 105.105 16.0467 105.058C16.3408 105.011 16.5412 104.734 16.4944 104.44Z" fill="#000D3E" />
            <path id="path32" d="M17.2014 108.852C17.1545 108.557 16.8781 108.357 16.5839 108.404C16.2894 108.451 16.0889 108.727 16.1358 109.022C16.1827 109.316 16.4592 109.517 16.7537 109.47C17.0478 109.423 17.2483 109.146 17.2014 108.852Z" fill="#000D3E" />
            <path id="path34" d="M17.9026 113.263C17.8557 112.969 17.5793 112.768 17.2851 112.815C16.9906 112.862 16.7901 113.138 16.837 113.433C16.8838 113.727 17.1603 113.928 17.4549 113.881C17.749 113.834 17.9494 113.557 17.9026 113.263Z" fill="#000D3E" />
            <path id="path36" d="M18.6038 117.675C18.5569 117.381 18.2804 117.18 17.9863 117.227C17.6918 117.274 17.4913 117.55 17.5382 117.845C17.585 118.139 17.8615 118.34 18.156 118.293C18.4502 118.246 18.6506 117.969 18.6038 117.675Z" fill="#000D3E" />
            <path id="path38" d="M19.3069 122.087C19.26 121.792 18.9836 121.592 18.6895 121.639C18.3949 121.685 18.1945 121.962 18.2414 122.256C18.2882 122.551 18.5646 122.751 18.8592 122.704C19.1533 122.657 19.3538 122.381 19.3069 122.087Z" fill="#000D3E" />
            <path id="path40" d="M20.0101 126.498C19.9632 126.204 19.6868 126.003 19.3926 126.05C19.0981 126.097 18.8976 126.374 18.9445 126.668C18.9913 126.962 19.2677 127.163 19.5623 127.116C19.8564 127.069 20.0569 126.793 20.0101 126.498Z" fill="#000D3E" />
            <path id="path42" d="M20.7112 130.91C20.6643 130.616 20.3879 130.415 20.0938 130.462C19.7992 130.509 19.5988 130.786 19.6457 131.08C19.6925 131.374 19.9689 131.575 20.2634 131.528C20.5576 131.481 20.7581 131.205 20.7112 130.91Z" fill="#000D3E" />
            <path id="path44" d="M21.4144 135.322C21.3675 135.028 21.0911 134.827 20.7969 134.874C20.5024 134.921 20.3019 135.198 20.3488 135.492C20.3956 135.786 20.672 135.986 20.9666 135.94C21.2607 135.893 21.4612 135.616 21.4144 135.322Z" fill="#000D3E" />
            <path id="path46" d="M22.1175 139.734C22.0707 139.44 21.7942 139.239 21.5 139.286C21.2055 139.332 21.0051 139.609 21.0519 139.903C21.0987 140.198 21.3752 140.398 21.6697 140.351C21.9639 140.304 22.1643 140.028 22.1175 139.734Z" fill="#000D3E" />
            <path id="path48" d="M17.2253 84.0496C17.1784 83.7551 16.9019 83.5542 16.6078 83.6011C16.3132 83.648 16.1124 83.9248 16.1593 84.2193C16.2062 84.5135 16.483 84.7139 16.7775 84.667C17.0717 84.6202 17.2721 84.3438 17.2253 84.0496Z" fill="#000D3E" />
            <path id="path50" d="M17.9284 88.4612C17.8815 88.1667 17.6051 87.9662 17.3109 88.0131C17.0164 88.06 16.8156 88.3364 16.8625 88.631C16.9093 88.9251 17.1861 89.1255 17.4806 89.0786C17.7748 89.0318 17.9753 88.7554 17.9284 88.4612Z" fill="#000D3E" />
            <path id="path52" d="M18.6315 92.8728C18.5846 92.5783 18.3082 92.3778 18.0141 92.4247C17.7195 92.4716 17.5187 92.7481 17.5656 93.0426C17.6124 93.3368 17.8892 93.5372 18.1837 93.4903C18.4779 93.4434 18.6784 93.167 18.6315 92.8728Z" fill="#000D3E" />
            <path id="path54" d="M19.3327 97.2845C19.2858 96.9899 19.0094 96.7895 18.7152 96.8363C18.4207 96.8832 18.2199 97.1597 18.2668 97.4542C18.3136 97.7484 18.5904 97.9488 18.8849 97.9019C19.1791 97.855 19.3796 97.5786 19.3327 97.2845Z" fill="#000D3E" />
            <path id="path56" d="M20.0358 101.696C19.9889 101.402 19.7125 101.201 19.4184 101.248C19.1238 101.295 18.923 101.571 18.9699 101.866C19.0167 102.16 19.2935 102.36 19.588 102.314C19.8822 102.267 20.0827 101.99 20.0358 101.696Z" fill="#000D3E" />
            <path id="path58" d="M20.739 106.108C20.6921 105.814 20.4156 105.613 20.1215 105.66C19.827 105.707 19.6262 105.984 19.673 106.278C19.7198 106.572 19.9966 106.773 20.2912 106.726C20.5853 106.679 20.7858 106.402 20.739 106.108Z" fill="#000D3E" />
            <path id="path60" d="M21.4401 110.519C21.3932 110.225 21.1168 110.025 20.8227 110.072C20.5281 110.119 20.3273 110.395 20.3741 110.689C20.421 110.983 20.6978 111.184 20.9923 111.137C21.2865 111.09 21.4869 110.814 21.4401 110.519Z" fill="#000D3E" />
            <path id="path62" d="M22.1452 114.931C22.0983 114.636 21.8219 114.436 21.5277 114.483C21.2332 114.53 21.0323 114.806 21.0792 115.1C21.126 115.394 21.4029 115.595 21.6974 115.548C21.9916 115.502 22.192 115.225 22.1452 114.931Z" fill="#000D3E" />
            <path id="path64" d="M22.8463 119.342C22.7995 119.048 22.5231 118.848 22.2289 118.894C21.9344 118.941 21.7335 119.218 21.7804 119.512C21.8273 119.806 22.1041 120.007 22.3986 119.96C22.6927 119.913 22.8932 119.637 22.8463 119.342Z" fill="#000D3E" />
            <path id="path66" d="M23.5475 123.754C23.5007 123.46 23.2242 123.259 22.9301 123.306C22.6355 123.353 22.4347 123.629 22.4815 123.924C22.5284 124.218 22.8052 124.419 23.0998 124.372C23.3939 124.325 23.5944 124.048 23.5475 123.754Z" fill="#000D3E" />
            <path id="path68" d="M24.2506 128.166C24.2038 127.872 23.9274 127.672 23.6332 127.719C23.3387 127.766 23.1378 128.042 23.1847 128.336C23.2316 128.631 23.5084 128.831 23.8029 128.784C24.097 128.737 24.2975 128.461 24.2506 128.166Z" fill="#000D3E" />
            <path id="path70" d="M24.9538 132.578C24.9069 132.283 24.6305 132.083 24.3363 132.13C24.0418 132.177 23.8409 132.453 23.8878 132.747C23.9347 133.042 24.2115 133.242 24.506 133.195C24.8002 133.149 25.0007 132.872 24.9538 132.578Z" fill="#000D3E" />
            <path id="path72" d="M25.6568 136.99C25.61 136.696 25.3335 136.495 25.0393 136.542C24.7448 136.589 24.544 136.865 24.5909 137.16C24.6378 137.454 24.9146 137.655 25.2091 137.608C25.5033 137.561 25.7037 137.284 25.6568 136.99Z" fill="#000D3E" />
            <path id="path74" d="M21.4459 85.5577C21.399 85.2635 21.1222 85.0631 20.8277 85.11C20.5336 85.1568 20.3331 85.4332 20.3799 85.7274C20.4268 86.0219 20.7033 86.2228 20.9975 86.1759C21.292 86.129 21.4928 85.8522 21.4459 85.5577Z" fill="#000D3E" />
            <path id="path76" d="M22.1471 89.9702C22.1002 89.6761 21.8234 89.4757 21.5289 89.5226C21.2347 89.5694 21.0342 89.8458 21.0811 90.14C21.128 90.4345 21.4045 90.6354 21.6986 90.5885C21.9932 90.5416 22.194 90.2648 22.1471 89.9702Z" fill="#000D3E" />
            <path id="path78" d="M22.8483 94.3818C22.8014 94.0872 22.5246 93.8868 22.2301 93.9337C21.9359 93.9805 21.7354 94.257 21.7823 94.5515C21.8292 94.8457 22.1056 95.0465 22.3998 94.9997C22.6943 94.9528 22.8951 94.6759 22.8483 94.3818Z" fill="#000D3E" />
            <path id="path80" d="M23.5534 98.7939C23.5065 98.4993 23.2297 98.2989 22.9351 98.3458C22.641 98.3927 22.4405 98.6691 22.4874 98.9636C22.5342 99.2578 22.8107 99.4586 23.1049 99.4118C23.3994 99.3649 23.6002 99.088 23.5534 98.7939Z" fill="#000D3E" />
            <path id="path82" d="M24.2545 103.205C24.2076 102.91 23.9308 102.71 23.6363 102.757C23.3421 102.804 23.1417 103.08 23.1886 103.375C23.2354 103.669 23.5119 103.87 23.8061 103.823C24.1006 103.776 24.3014 103.499 24.2545 103.205Z" fill="#000D3E" />
            <path id="path84" d="M24.9577 107.617C24.9108 107.322 24.634 107.122 24.3394 107.169C24.0453 107.215 23.8448 107.492 23.8917 107.786C23.9385 108.081 24.215 108.281 24.5092 108.235C24.8037 108.188 25.0045 107.911 24.9577 107.617Z" fill="#000D3E" />
            <path id="path86" d="M25.6608 112.028C25.6139 111.734 25.3371 111.533 25.0426 111.58C24.7484 111.627 24.5479 111.903 24.5948 112.198C24.6417 112.492 24.9181 112.693 25.2123 112.646C25.5068 112.599 25.7076 112.322 25.6608 112.028Z" fill="#000D3E" />
            <path id="path88" d="M26.3639 116.44C26.317 116.145 26.0402 115.945 25.7457 115.992C25.4515 116.039 25.251 116.315 25.2979 116.61C25.3448 116.904 25.6213 117.105 25.9154 117.058C26.21 117.011 26.4108 116.734 26.3639 116.44Z" fill="#000D3E" />
            <path id="path90" d="M27.0651 120.851C27.0182 120.557 26.7414 120.356 26.4469 120.403C26.1528 120.45 25.9523 120.727 25.9992 121.021C26.046 121.315 26.3224 121.516 26.6166 121.469C26.9111 121.422 27.112 121.146 27.0651 120.851Z" fill="#000D3E" />
            <path id="path92" d="M27.7683 125.263C27.7214 124.969 27.4446 124.769 27.15 124.815C26.8559 124.862 26.6554 125.139 26.7023 125.433C26.7491 125.727 27.0256 125.928 27.3197 125.881C27.6143 125.834 27.8151 125.558 27.7683 125.263Z" fill="#000D3E" />
            <path id="path94" d="M28.4694 129.675C28.4225 129.381 28.1457 129.18 27.8512 129.227C27.5571 129.274 27.3566 129.55 27.4035 129.845C27.4503 130.139 27.7267 130.339 28.0209 130.293C28.3154 130.246 28.5163 129.969 28.4694 129.675Z" fill="#000D3E" />
            <path id="path96" d="M29.1745 134.087C29.1277 133.793 28.8508 133.592 28.5563 133.639C28.2621 133.686 28.0617 133.962 28.1085 134.256C28.1554 134.551 28.4318 134.751 28.726 134.704C29.0205 134.657 29.2214 134.381 29.1745 134.087Z" fill="#000D3E" />
            <path id="path98" d="M29.8757 138.498C29.8288 138.204 29.552 138.003 29.2575 138.05C28.9633 138.097 28.7629 138.374 28.8097 138.668C28.8566 138.962 29.133 139.163 29.4271 139.116C29.7217 139.069 29.9225 138.792 29.8757 138.498Z" fill="#000D3E" />
            <path id="path100" d="M24.9831 82.8142C24.9362 82.5197 24.6597 82.3189 24.3652 82.3658C24.071 82.4126 23.8702 82.6895 23.9171 82.984C23.964 83.2781 24.2408 83.4786 24.5349 83.4317C24.8295 83.3848 25.0299 83.1084 24.9831 82.8142Z" fill="#000D3E" />
            <path id="path102" d="M25.6843 87.2259C25.6374 86.9313 25.361 86.7309 25.0664 86.7778C24.7723 86.8246 24.5714 87.1011 24.6183 87.3956C24.6652 87.6898 24.9419 87.8902 25.2361 87.8434C25.5306 87.7965 25.7311 87.52 25.6843 87.2259Z" fill="#000D3E" />
            <path id="path104" d="M26.3894 91.6375C26.3425 91.343 26.066 91.1425 25.7715 91.1894C25.4773 91.2362 25.2765 91.5127 25.3234 91.8072C25.3702 92.1014 25.647 92.3018 25.9412 92.255C26.2357 92.2081 26.4362 91.9317 26.3894 91.6375Z" fill="#000D3E" />
            <path id="path106" d="M27.0905 96.0491C27.0436 95.7546 26.7672 95.5541 26.4727 95.601C26.1785 95.6478 25.9777 95.9243 26.0246 96.2189C26.0714 96.513 26.3482 96.7134 26.6424 96.6666C26.9369 96.6197 27.1374 96.3433 27.0905 96.0491Z" fill="#000D3E" />
            <path id="path108" d="M27.7936 100.46C27.7467 100.166 27.4703 99.9652 27.1758 100.012C26.8816 100.059 26.6808 100.335 26.7277 100.63C26.7745 100.924 27.0513 101.125 27.3455 101.078C27.64 101.031 27.8405 100.754 27.7936 100.46Z" fill="#000D3E" />
            <path id="path110" d="M28.4948 104.873C28.448 104.579 28.1715 104.378 27.877 104.425C27.5828 104.472 27.382 104.748 27.4289 105.043C27.4757 105.337 27.7525 105.537 28.0466 105.49C28.3412 105.443 28.5417 105.167 28.4948 104.873Z" fill="#000D3E" />
            <path id="path112" d="M29.1998 109.284C29.153 108.989 28.8766 108.789 28.582 108.836C28.2879 108.883 28.087 109.159 28.1339 109.453C28.1807 109.748 28.4576 109.948 28.7517 109.901C29.0463 109.855 29.2467 109.578 29.1998 109.284Z" fill="#000D3E" />
            <path id="path114" d="M29.903 113.696C29.8561 113.402 29.5797 113.201 29.2852 113.248C28.991 113.295 28.7902 113.571 28.837 113.865C28.8838 114.16 29.1607 114.36 29.4549 114.314C29.7494 114.267 29.9498 113.99 29.903 113.696Z" fill="#000D3E" />
            <path id="path116" d="M30.6041 118.107C30.5573 117.813 30.2809 117.613 29.9863 117.66C29.6922 117.706 29.4913 117.983 29.5382 118.277C29.5851 118.572 29.8619 118.772 30.156 118.725C30.4506 118.678 30.651 118.402 30.6041 118.107Z" fill="#000D3E" />
            <path id="path118" d="M31.3073 122.519C31.2604 122.225 30.984 122.025 30.6895 122.072C30.3953 122.119 30.1945 122.395 30.2413 122.689C30.2882 122.984 30.565 123.184 30.8591 123.137C31.1537 123.09 31.3542 122.814 31.3073 122.519Z" fill="#000D3E" />
            <path id="path120" d="M32.0104 126.931C31.9635 126.636 31.6871 126.436 31.3926 126.483C31.0984 126.53 30.8976 126.806 30.9444 127.1C30.9913 127.395 31.2681 127.595 31.5623 127.548C31.8568 127.502 32.0573 127.225 32.0104 126.931Z" fill="#000D3E" />
            <path id="path122" d="M32.7116 131.342C32.6647 131.048 32.3883 130.847 32.0938 130.894C31.7996 130.941 31.5988 131.217 31.6456 131.511C31.6925 131.806 31.9693 132.006 32.2634 131.96C32.558 131.913 32.7585 131.636 32.7116 131.342Z" fill="#000D3E" />
            <path id="path124" d="M33.4127 135.754C33.3658 135.46 33.0893 135.259 32.7948 135.306C32.5007 135.353 32.2999 135.63 32.3467 135.924C32.3936 136.218 32.6705 136.419 32.9646 136.372C33.2591 136.325 33.4596 136.048 33.4127 135.754Z" fill="#000D3E" />
            <path id="path126" d="M29.2017 84.3233C29.1549 84.0291 28.8785 83.8286 28.5839 83.8755C28.2898 83.9224 28.0889 84.1989 28.1358 84.493C28.1827 84.7876 28.4595 84.9883 28.7537 84.9415C29.0482 84.8946 29.2486 84.6178 29.2017 84.3233Z" fill="#000D3E" />
            <path id="path128" d="M29.9029 88.7344C29.8561 88.4403 29.5797 88.2398 29.2851 88.2867C28.991 88.3335 28.7901 88.61 28.8369 88.9042C28.8838 89.1987 29.1607 89.3995 29.4549 89.3526C29.7494 89.3057 29.9498 89.0289 29.9029 88.7344Z" fill="#000D3E" />
            <path id="path130" d="M30.6041 93.1469C30.5572 92.8524 30.2808 92.6519 29.9863 92.6988C29.6921 92.7456 29.4913 93.0221 29.5382 93.3166C29.585 93.6108 29.8619 93.8116 30.156 93.7647C30.4506 93.7178 30.651 93.4411 30.6041 93.1469Z" fill="#000D3E" />
            <path id="path132" d="M31.3092 97.558C31.2623 97.2635 30.9859 97.063 30.6914 97.1099C30.3972 97.1568 30.1964 97.4332 30.2433 97.7278C30.2901 98.0219 30.5669 98.2227 30.8611 98.1759C31.1556 98.129 31.3561 97.8522 31.3092 97.558Z" fill="#000D3E" />
            <path id="path134" d="M32.0104 101.97C31.9635 101.675 31.6871 101.475 31.3925 101.522C31.0984 101.568 30.8975 101.845 30.9444 102.139C30.9913 102.434 31.2681 102.634 31.5623 102.587C31.8568 102.541 32.0572 102.264 32.0104 101.97Z" fill="#000D3E" />
            <path id="path136" d="M32.7135 106.382C32.6666 106.087 32.3902 105.887 32.0957 105.934C31.8015 105.98 31.6007 106.257 31.6476 106.551C31.6944 106.846 31.9712 107.046 32.2654 107C32.5599 106.953 32.7604 106.676 32.7135 106.382Z" fill="#000D3E" />
            <path id="path138" d="M33.4186 110.793C33.3717 110.498 33.0953 110.298 32.8007 110.345C32.5066 110.392 32.3057 110.668 32.3526 110.963C32.3995 111.257 32.6763 111.458 32.9705 111.411C33.265 111.364 33.4654 111.087 33.4186 110.793Z" fill="#000D3E" />
            <path id="path140" d="M34.1198 115.205C34.0729 114.91 33.7964 114.709 33.5019 114.756C33.2078 114.803 33.0069 115.08 33.0538 115.374C33.1006 115.668 33.3775 115.869 33.6717 115.822C33.9662 115.775 34.1666 115.499 34.1198 115.205Z" fill="#000D3E" />
            <path id="path142" d="M34.821 119.616C34.7741 119.322 34.4977 119.121 34.2031 119.168C33.909 119.215 33.7081 119.492 33.755 119.786C33.8019 120.08 34.0787 120.281 34.3728 120.234C34.6674 120.187 34.8678 119.911 34.821 119.616Z" fill="#000D3E" />
            <path id="path144" d="M35.5241 124.028C35.4772 123.734 35.2008 123.533 34.9063 123.58C34.6121 123.627 34.4113 123.903 34.4582 124.198C34.505 124.492 34.7818 124.692 35.076 124.646C35.3705 124.599 35.571 124.322 35.5241 124.028Z" fill="#000D3E" />
            <path id="path146" d="M36.2272 128.44C36.1803 128.145 35.9039 127.945 35.6094 127.992C35.3152 128.038 35.1144 128.315 35.1613 128.609C35.2081 128.904 35.4849 129.104 35.7791 129.057C36.0736 129.01 36.2741 128.734 36.2272 128.44Z" fill="#000D3E" />
            <path id="path148" d="M36.9284 132.852C36.8816 132.558 36.6051 132.357 36.3106 132.404C36.0164 132.451 35.8156 132.727 35.8625 133.022C35.9093 133.316 36.1861 133.516 36.4803 133.469C36.7748 133.422 36.9753 133.146 36.9284 132.852Z" fill="#000D3E" />
            <path id="path150" d="M37.6315 137.263C37.5847 136.969 37.3082 136.768 37.0137 136.815C36.7195 136.862 36.5187 137.139 36.5656 137.433C36.6124 137.727 36.8892 137.927 37.1834 137.88C37.4779 137.834 37.6784 137.557 37.6315 137.263Z" fill="#000D3E" />
            <path id="path152" d="M32.7405 81.579C32.6936 81.2844 32.4168 81.0836 32.1226 81.1305C31.8285 81.1773 31.6281 81.4541 31.675 81.7486C31.7218 82.0428 31.9982 82.2433 32.2924 82.1964C32.5865 82.1496 32.7874 81.8731 32.7405 81.579Z" fill="#000D3E" />
            <path id="path154" d="M33.4437 85.9906C33.3968 85.6961 33.12 85.4956 32.8258 85.5425C32.5317 85.5893 32.3312 85.8657 32.3781 86.1603C32.4249 86.4544 32.7013 86.6549 32.9955 86.6081C33.2897 86.5612 33.4905 86.2847 33.4437 85.9906Z" fill="#000D3E" />
            <path id="path156" d="M34.1468 90.4017C34.0999 90.1072 33.8231 89.9068 33.5289 89.9536C33.2348 90.0004 33.0343 90.2769 33.0812 90.5714C33.128 90.8656 33.4045 91.066 33.6986 91.0192C33.9928 90.9724 34.1936 90.6959 34.1468 90.4017Z" fill="#000D3E" />
            <path id="path158" d="M34.848 94.8133C34.8011 94.5188 34.5243 94.3184 34.2301 94.3652C33.936 94.4121 33.7355 94.6885 33.7824 94.983C33.8292 95.2772 34.1056 95.4777 34.3998 95.4308C34.694 95.384 34.8948 95.1075 34.848 94.8133Z" fill="#000D3E" />
            <path id="path160" d="M35.5511 99.2254C35.5042 98.9309 35.2274 98.7305 34.9332 98.7773C34.6391 98.8242 34.4386 99.1006 34.4855 99.3951C34.5323 99.6893 34.8088 99.8898 35.1029 99.8429C35.3971 99.7961 35.5979 99.5196 35.5511 99.2254Z" fill="#000D3E" />
            <path id="path162" d="M36.2542 103.638C36.2074 103.343 35.9305 103.143 35.6364 103.189C35.3422 103.236 35.1418 103.513 35.1886 103.807C35.2355 104.101 35.5119 104.302 35.8061 104.255C36.1002 104.208 36.3011 103.932 36.2542 103.638Z" fill="#000D3E" />
            <path id="path164" d="M36.9553 108.048C36.9085 107.754 36.6317 107.554 36.3375 107.601C36.0434 107.647 35.8429 107.924 35.8897 108.218C35.9366 108.512 36.2131 108.713 36.5072 108.666C36.8014 108.619 37.0022 108.342 36.9553 108.048Z" fill="#000D3E" />
            <path id="path166" d="M37.6585 112.46C37.6116 112.166 37.3348 111.966 37.0407 112.013C36.7465 112.06 36.546 112.336 36.5929 112.63C36.6397 112.924 36.9162 113.125 37.2103 113.078C37.5045 113.031 37.7053 112.755 37.6585 112.46Z" fill="#000D3E" />
            <path id="path168" d="M38.3635 116.873C38.3167 116.578 38.0399 116.378 37.7457 116.425C37.4516 116.472 37.2511 116.748 37.2979 117.042C37.3448 117.337 37.6213 117.537 37.9154 117.49C38.2096 117.444 38.4104 117.167 38.3635 116.873Z" fill="#000D3E" />
            <path id="path170" d="M39.0628 121.284C39.0159 120.99 38.7391 120.789 38.445 120.836C38.1508 120.883 37.9503 121.159 37.9972 121.453C38.0441 121.748 38.3205 121.948 38.6146 121.902C38.9088 121.855 39.1097 121.578 39.0628 121.284Z" fill="#000D3E" />
            <path id="path172" d="M39.7659 125.696C39.719 125.402 39.4422 125.201 39.1481 125.248C38.8539 125.295 38.6534 125.571 38.7003 125.865C38.7472 126.16 39.0236 126.36 39.3178 126.314C39.6119 126.267 39.8128 125.99 39.7659 125.696Z" fill="#000D3E" />
            <path id="path174" d="M40.469 130.107C40.4222 129.813 40.1454 129.612 39.8512 129.659C39.5571 129.706 39.3566 129.982 39.4034 130.277C39.4503 130.571 39.7267 130.772 40.0209 130.725C40.3151 130.678 40.5159 130.401 40.469 130.107Z" fill="#000D3E" />
            <path id="path176" d="M41.1721 134.519C41.1252 134.224 40.8484 134.024 40.5542 134.071C40.2601 134.117 40.0596 134.394 40.1065 134.688C40.1534 134.983 40.4299 135.184 40.724 135.137C41.0182 135.09 41.219 134.813 41.1721 134.519Z" fill="#000D3E" />
            <path id="path178" d="M36.9611 83.0875C36.9143 82.7933 36.6379 82.5929 36.3437 82.6397C36.0492 82.6866 35.8487 82.963 35.8955 83.2572C35.9424 83.5517 36.2189 83.7526 36.5135 83.7057C36.8076 83.6588 37.008 83.382 36.9611 83.0875Z" fill="#000D3E" />
            <path id="path180" d="M37.6643 87.4986C37.6174 87.2045 37.341 87.004 37.0468 87.0508C36.7523 87.0977 36.5518 87.3742 36.5987 87.6683C36.6456 87.9628 36.922 88.1637 37.2166 88.1168C37.5107 88.0699 37.7112 87.7932 37.6643 87.4986Z" fill="#000D3E" />
            <path id="path182" d="M38.3635 91.9111C38.3166 91.6166 38.0402 91.4161 37.7461 91.4629C37.4515 91.5098 37.251 91.7863 37.2979 92.0808C37.3448 92.375 37.6213 92.5758 37.9158 92.5289C38.21 92.4821 38.4104 92.2053 38.3635 91.9111Z" fill="#000D3E" />
            <path id="path184" d="M39.0667 96.3227C39.0198 96.0282 38.7433 95.8277 38.4492 95.8746C38.1546 95.9215 37.9542 96.1979 38.0011 96.4924C38.0479 96.7866 38.3244 96.9874 38.6189 96.9405C38.9131 96.8937 39.1135 96.6169 39.0667 96.3227Z" fill="#000D3E" />
            <path id="path186" d="M39.7717 100.735C39.7248 100.44 39.4484 100.24 39.1543 100.287C38.8597 100.334 38.6592 100.61 38.7061 100.905C38.753 101.199 39.0295 101.4 39.324 101.353C39.6182 101.306 39.8186 101.029 39.7717 100.735Z" fill="#000D3E" />
            <path id="path188" d="M40.471 105.146C40.4241 104.851 40.1476 104.651 39.8535 104.698C39.5589 104.745 39.3585 105.021 39.4054 105.316C39.4522 105.61 39.7287 105.811 40.0232 105.764C40.3174 105.717 40.5178 105.44 40.471 105.146Z" fill="#000D3E" />
            <path id="path190" d="M41.1741 109.557C41.1272 109.263 40.8508 109.062 40.5566 109.109C40.2621 109.156 40.0616 109.432 40.1085 109.727C40.1553 110.021 40.4318 110.222 40.7263 110.175C41.0205 110.128 41.2209 109.851 41.1741 109.557Z" fill="#000D3E" />
            <path id="path192" d="M41.8772 113.97C41.8303 113.675 41.5539 113.475 41.2597 113.522C40.9652 113.568 40.7647 113.845 40.8116 114.139C40.8585 114.434 41.1349 114.634 41.4295 114.587C41.7236 114.541 41.9241 114.264 41.8772 113.97Z" fill="#000D3E" />
            <path id="path194" d="M42.5784 118.381C42.5315 118.087 42.2551 117.886 41.961 117.933C41.6664 117.98 41.4659 118.256 41.5128 118.551C41.5597 118.845 41.8361 119.046 42.1306 118.999C42.4248 118.952 42.6253 118.675 42.5784 118.381Z" fill="#000D3E" />
            <path id="path196" d="M43.2835 122.793C43.2366 122.498 42.9602 122.298 42.666 122.345C42.3715 122.392 42.171 122.668 42.2179 122.963C42.2648 123.257 42.5412 123.457 42.8357 123.41C43.1299 123.363 43.3304 123.087 43.2835 122.793Z" fill="#000D3E" />
            <path id="path198" d="M43.9847 127.204C43.9378 126.91 43.6614 126.709 43.3672 126.756C43.0727 126.803 42.8722 127.08 42.9191 127.374C42.9659 127.668 43.2424 127.869 43.5369 127.822C43.8311 127.775 44.0315 127.499 43.9847 127.204Z" fill="#000D3E" />
            <path id="path200" d="M44.6878 131.616C44.641 131.322 44.3645 131.121 44.0703 131.168C43.7758 131.215 43.5754 131.492 43.6222 131.786C43.6691 132.08 43.9455 132.28 44.24 132.233C44.5342 132.187 44.7347 131.91 44.6878 131.616Z" fill="#000D3E" />
            <path id="path202" d="M45.389 136.028C45.3421 135.734 45.0657 135.533 44.7715 135.58C44.477 135.627 44.2766 135.904 44.3234 136.198C44.3702 136.492 44.6467 136.692 44.9412 136.646C45.2353 136.599 45.4358 136.322 45.389 136.028Z" fill="#000D3E" />
            <path id="path204" d="M40.5007 80.344C40.4538 80.0495 40.1769 79.8487 39.8828 79.8955C39.5882 79.9424 39.3878 80.2192 39.4347 80.5138C39.4816 80.8079 39.758 81.0084 40.0525 80.9615C40.3467 80.9147 40.5475 80.6382 40.5007 80.344Z" fill="#000D3E" />
            <path id="path206" d="M41.1999 84.7552C41.153 84.4606 40.8762 84.2602 40.582 84.3071C40.2875 84.354 40.087 84.6304 40.1339 84.9249C40.1808 85.2191 40.4572 85.4196 40.7517 85.3726C41.0459 85.3258 41.2467 85.0493 41.1999 84.7552Z" fill="#000D3E" />
            <path id="path208" d="M41.903 89.1663C41.8561 88.8718 41.5793 88.6714 41.2852 88.7182C40.9906 88.7651 40.7902 89.0415 40.8371 89.336C40.8839 89.6302 41.1603 89.8307 41.4549 89.7838C41.749 89.7369 41.9499 89.4605 41.903 89.1663Z" fill="#000D3E" />
            <path id="path210" d="M42.6062 93.5789C42.5592 93.2844 42.2825 93.0839 41.9883 93.1308C41.6938 93.1777 41.4933 93.4541 41.5402 93.7486C41.587 94.0428 41.8634 94.2433 42.158 94.1964C42.4521 94.1495 42.653 93.8731 42.6062 93.5789Z" fill="#000D3E" />
            <path id="path212" d="M43.3093 97.9905C43.2624 97.696 42.9856 97.4956 42.6914 97.5424C42.3969 97.5893 42.1964 97.8657 42.2433 98.1603C42.2902 98.4544 42.5666 98.6549 42.8611 98.608C43.1553 98.5612 43.3561 98.2847 43.3093 97.9905Z" fill="#000D3E" />
            <path id="path214" d="M44.0104 102.402C43.9636 102.107 43.6868 101.907 43.3926 101.954C43.0981 102 42.8976 102.277 42.9445 102.571C42.9913 102.866 43.2677 103.066 43.5623 103.019C43.8564 102.972 44.0573 102.696 44.0104 102.402Z" fill="#000D3E" />
            <path id="path216" d="M44.7135 106.813C44.6667 106.519 44.3899 106.318 44.0957 106.365C43.8012 106.412 43.6007 106.688 43.6476 106.983C43.6944 107.277 43.9709 107.478 44.2654 107.431C44.5596 107.384 44.7604 107.107 44.7135 106.813Z" fill="#000D3E" />
            <path id="path218" d="M45.4166 111.225C45.3698 110.93 45.093 110.73 44.7988 110.777C44.5043 110.824 44.3038 111.1 44.3507 111.394C44.3975 111.688 44.674 111.889 44.9685 111.842C45.2627 111.796 45.4635 111.519 45.4166 111.225Z" fill="#000D3E" />
            <path id="path220" d="M46.1198 115.637C46.0729 115.342 45.7961 115.142 45.502 115.189C45.2074 115.236 45.007 115.512 45.0538 115.806C45.1007 116.101 45.3771 116.301 45.6716 116.254C45.9658 116.208 46.1667 115.931 46.1198 115.637Z" fill="#000D3E" />
            <path id="path222" d="M46.8209 120.048C46.7741 119.754 46.4973 119.554 46.2031 119.601C45.9086 119.647 45.7081 119.924 45.755 120.218C45.8019 120.513 46.0783 120.713 46.3728 120.666C46.667 120.619 46.8678 120.343 46.8209 120.048Z" fill="#000D3E" />
            <path id="path224" d="M47.526 124.46C47.4792 124.166 47.2024 123.965 46.9082 124.012C46.6137 124.059 46.4132 124.335 46.4601 124.63C46.507 124.924 46.7834 125.125 47.0779 125.078C47.3721 125.031 47.5729 124.754 47.526 124.46Z" fill="#000D3E" />
            <path id="path226" d="M48.2272 128.871C48.1803 128.577 47.9035 128.377 47.6094 128.424C47.3149 128.471 47.1144 128.747 47.1612 129.041C47.2081 129.336 47.4845 129.536 47.7791 129.489C48.0732 129.443 48.2741 129.166 48.2272 128.871Z" fill="#000D3E" />
            <path id="path228" d="M48.9283 133.283C48.8815 132.989 48.6046 132.788 48.3104 132.835C48.0159 132.882 47.8155 133.159 47.8623 133.453C47.9092 133.748 48.1857 133.948 48.4802 133.901C48.7744 133.855 48.9752 133.578 48.9283 133.283Z" fill="#000D3E" />
            <path id="path230" d="M44.7174 81.8521C44.6705 81.5579 44.3937 81.3575 44.0996 81.4043C43.805 81.4512 43.6046 81.7277 43.6514 82.0218C43.6983 82.3164 43.9748 82.5172 44.2693 82.4703C44.5635 82.4235 44.7643 82.1466 44.7174 81.8521Z" fill="#000D3E" />
            <path id="path232" d="M45.4185 86.2637C45.3717 85.9695 45.0949 85.7691 44.8007 85.816C44.5062 85.8629 44.3057 86.1393 44.3526 86.4334C44.3995 86.728 44.676 86.9288 44.9705 86.8819C45.2646 86.8351 45.4654 86.5582 45.4185 86.2637Z" fill="#000D3E" />
            <path id="path234" d="M46.1217 90.6757C46.0748 90.3812 45.798 90.1807 45.5039 90.2276C45.2093 90.2745 45.0089 90.5509 45.0558 90.8454C45.1026 91.1396 45.3791 91.3404 45.6736 91.2935C45.9678 91.2467 46.1686 90.9699 46.1217 90.6757Z" fill="#000D3E" />
            <path id="path236" d="M46.8248 95.0883C46.7779 94.7938 46.5012 94.5933 46.207 94.6402C45.9125 94.6871 45.712 94.9635 45.7589 95.258C45.8057 95.5522 46.0822 95.753 46.3767 95.7061C46.6709 95.6593 46.8717 95.3825 46.8248 95.0883Z" fill="#000D3E" />
            <path id="path238" d="M47.526 99.4989C47.4791 99.2044 47.2023 99.004 46.9082 99.0508C46.6136 99.0977 46.4132 99.3741 46.4601 99.6687C46.5069 99.9628 46.7834 100.164 47.0779 100.117C47.3721 100.07 47.5729 99.7931 47.526 99.4989Z" fill="#000D3E" />
            <path id="path240" d="M48.2291 103.911C48.1822 103.617 47.9055 103.416 47.6113 103.463C47.3168 103.51 47.1163 103.786 47.1632 104.081C47.21 104.375 47.4865 104.576 47.781 104.529C48.0752 104.482 48.276 104.205 48.2291 103.911Z" fill="#000D3E" />
            <path id="path242" d="M48.9323 108.323C48.8854 108.028 48.6086 107.828 48.3144 107.875C48.0199 107.921 47.8194 108.198 47.8663 108.492C47.9131 108.787 48.1896 108.987 48.4842 108.941C48.7783 108.894 48.9791 108.617 48.9323 108.323Z" fill="#000D3E" />
            <path id="path244" d="M49.6334 112.734C49.5865 112.44 49.3097 112.239 49.0156 112.286C48.7211 112.333 48.5206 112.609 48.5675 112.904C48.6143 113.198 48.8908 113.399 49.1853 113.352C49.4795 113.305 49.6803 113.028 49.6334 112.734Z" fill="#000D3E" />
            <path id="path246" d="M50.3366 117.146C50.2897 116.851 50.0129 116.651 49.7188 116.698C49.4242 116.745 49.2238 117.021 49.2707 117.316C49.3175 117.61 49.5939 117.81 49.8885 117.763C50.1826 117.716 50.3835 117.44 50.3366 117.146Z" fill="#000D3E" />
            <path id="path248" d="M51.0397 121.558C50.9928 121.263 50.7161 121.063 50.4219 121.11C50.1274 121.157 49.9269 121.433 49.9738 121.728C50.0206 122.022 50.297 122.222 50.5916 122.175C50.8857 122.129 51.0866 121.852 51.0397 121.558Z" fill="#000D3E" />
            <path id="path250" d="M51.7409 125.969C51.694 125.675 51.4172 125.474 51.1231 125.521C50.8285 125.568 50.6281 125.844 50.675 126.139C50.7218 126.433 50.9982 126.633 51.2928 126.587C51.5869 126.54 51.7878 126.263 51.7409 125.969Z" fill="#000D3E" />
            <path id="path252" d="M52.444 130.382C52.3972 130.087 52.1204 129.887 51.8262 129.934C51.5317 129.98 51.3312 130.257 51.3781 130.551C51.4249 130.846 51.7013 131.046 51.9959 130.999C52.29 130.952 52.4909 130.676 52.444 130.382Z" fill="#000D3E" />
            <path id="path254" d="M53.1472 134.793C53.1003 134.499 52.8235 134.298 52.5293 134.345C52.2348 134.392 52.0344 134.668 52.0812 134.963C52.128 135.257 52.4045 135.457 52.699 135.41C52.9932 135.363 53.194 135.087 53.1472 134.793Z" fill="#000D3E" />
            <path id="path256" d="M48.2565 79.1082C48.2096 78.8137 47.9332 78.6128 47.6386 78.6597C47.3445 78.7065 47.1437 78.9834 47.1906 79.2779C47.2374 79.5721 47.5142 79.7725 47.8084 79.7257C48.1029 79.6788 48.3034 79.4024 48.2565 79.1082Z" fill="#000D3E" />
            <path id="path258" d="M48.9597 83.5193C48.9128 83.2248 48.6364 83.0243 48.3418 83.0712C48.0477 83.1181 47.8468 83.3945 47.8937 83.6891C47.9405 83.9832 48.2173 84.1837 48.5115 84.1368C48.806 84.0899 49.0065 83.8135 48.9597 83.5193Z" fill="#000D3E" />
            <path id="path260" d="M49.6628 87.9314C49.6159 87.6369 49.3395 87.4364 49.0449 87.4833C48.7508 87.5302 48.5499 87.8067 48.5968 88.1012C48.6437 88.3953 48.9205 88.5958 49.2146 88.5489C49.5092 88.502 49.7096 88.2256 49.6628 87.9314Z" fill="#000D3E" />
            <path id="path262" d="M50.364 92.344C50.3171 92.0495 50.0406 91.849 49.7461 91.8959C49.452 91.9428 49.2511 92.2193 49.298 92.5138C49.3448 92.8079 49.6216 93.0084 49.9158 92.9615C50.2103 92.9146 50.4108 92.6382 50.364 92.344Z" fill="#000D3E" />
            <path id="path264" d="M51.0651 96.7547C51.0182 96.4601 50.7418 96.2597 50.4473 96.3066C50.1531 96.3534 49.9523 96.6299 49.9992 96.9244C50.046 97.2186 50.3228 97.419 50.617 97.3722C50.9115 97.3253 51.112 97.0488 51.0651 96.7547Z" fill="#000D3E" />
            <path id="path266" d="M51.7702 101.167C51.7234 100.873 51.4469 100.672 51.1524 100.719C50.8582 100.766 50.6574 101.042 50.7043 101.337C50.7511 101.631 51.0279 101.831 51.322 101.784C51.6166 101.737 51.8171 101.461 51.7702 101.167Z" fill="#000D3E" />
            <path id="path268" d="M52.4713 105.578C52.4245 105.284 52.1481 105.083 51.8535 105.13C51.5594 105.177 51.3585 105.454 51.4054 105.748C51.4522 106.042 51.7291 106.243 52.0232 106.196C52.3178 106.149 52.5182 105.872 52.4713 105.578Z" fill="#000D3E" />
            <path id="path270" d="M53.1745 109.99C53.1276 109.695 52.8512 109.495 52.5567 109.542C52.2625 109.589 52.0616 109.865 52.1085 110.159C52.1553 110.454 52.4322 110.654 52.7263 110.608C53.0209 110.561 53.2213 110.284 53.1745 109.99Z" fill="#000D3E" />
            <path id="path272" d="M53.8776 114.401C53.8307 114.107 53.5543 113.907 53.2598 113.954C52.9656 114 52.7648 114.277 52.8116 114.571C52.8585 114.866 53.1353 115.066 53.4295 115.019C53.724 114.972 53.9245 114.696 53.8776 114.401Z" fill="#000D3E" />
            <path id="path274" d="M54.5807 118.812C54.5339 118.518 54.2574 118.318 53.9629 118.365C53.6688 118.412 53.4679 118.688 53.5147 118.982C53.5616 119.277 53.8384 119.477 54.1326 119.43C54.4271 119.383 54.6276 119.107 54.5807 118.812Z" fill="#000D3E" />
            <path id="path276" d="M55.2819 123.225C55.235 122.93 54.9586 122.73 54.6641 122.777C54.3699 122.824 54.1691 123.1 54.2159 123.394C54.2628 123.689 54.5396 123.889 54.8338 123.842C55.1283 123.795 55.3288 123.519 55.2819 123.225Z" fill="#000D3E" />
            <path id="path278" d="M55.985 127.637C55.9382 127.342 55.6617 127.142 55.3672 127.189C55.073 127.236 54.8722 127.512 54.919 127.806C54.9659 128.101 55.2427 128.301 55.5369 128.254C55.8314 128.208 56.0319 127.931 55.985 127.637Z" fill="#000D3E" />
            <path id="path280" d="M56.6861 132.048C56.6393 131.754 56.3628 131.553 56.0683 131.6C55.7741 131.647 55.5733 131.923 55.6201 132.218C55.667 132.512 55.9439 132.713 56.2381 132.666C56.5326 132.619 56.733 132.342 56.6861 132.048Z" fill="#000D3E" />
            <path id="path282" d="M52.4748 80.6163C52.428 80.3221 52.1515 80.1217 51.857 80.1686C51.5628 80.2154 51.3624 80.4918 51.4092 80.786C51.4561 81.0805 51.7326 81.2814 52.0267 81.2345C52.3213 81.1876 52.5217 80.9108 52.4748 80.6163Z" fill="#000D3E" />
            <path id="path284" d="M53.1799 85.0284C53.133 84.7343 52.8566 84.5338 52.5621 84.5807C52.2679 84.6275 52.0674 84.9039 52.1143 85.1981C52.1612 85.4926 52.4377 85.6935 52.7318 85.6466C53.0264 85.5997 53.2268 85.3229 53.1799 85.0284Z" fill="#000D3E" />
            <path id="path286" d="M53.8811 89.4409C53.8342 89.1464 53.5578 88.9459 53.2633 88.9928C52.9691 89.0396 52.7686 89.316 52.8155 89.6106C52.8624 89.9047 53.1388 90.1056 53.433 90.0587C53.7275 90.0118 53.928 89.7351 53.8811 89.4409Z" fill="#000D3E" />
            <path id="path288" d="M54.5823 93.8525C54.5354 93.558 54.259 93.3575 53.9644 93.4044C53.6703 93.4512 53.4698 93.7277 53.5167 94.0222C53.5635 94.3164 53.84 94.5172 54.1342 94.4704C54.4287 94.4235 54.6291 94.1467 54.5823 93.8525Z" fill="#000D3E" />
            <path id="path290" d="M55.2854 98.2641C55.2385 97.9696 54.9621 97.7691 54.6676 97.816C54.3734 97.8629 54.1729 98.1393 54.2198 98.4338C54.2667 98.728 54.5431 98.9288 54.8373 98.882C55.1318 98.8351 55.3322 98.5583 55.2854 98.2641Z" fill="#000D3E" />
            <path id="path292" d="M55.9866 102.676C55.9397 102.381 55.6633 102.181 55.3687 102.228C55.0746 102.274 54.8741 102.551 54.921 102.845C54.9678 103.14 55.2443 103.34 55.5385 103.294C55.833 103.247 56.0334 102.97 55.9866 102.676Z" fill="#000D3E" />
            <path id="path294" d="M56.6897 107.087C56.6428 106.792 56.3664 106.592 56.0718 106.639C55.7777 106.686 55.5772 106.962 55.6241 107.257C55.671 107.551 55.9474 107.752 56.2416 107.705C56.5361 107.658 56.7365 107.381 56.6897 107.087Z" fill="#000D3E" />
            <path id="path296" d="M57.3928 111.499C57.3459 111.205 57.0695 111.004 56.775 111.051C56.4808 111.098 56.2803 111.375 56.3272 111.669C56.3741 111.963 56.6506 112.164 56.9447 112.117C57.2392 112.07 57.4397 111.794 57.3928 111.499Z" fill="#000D3E" />
            <path id="path298" d="M58.0941 115.91C58.0472 115.616 57.7707 115.415 57.4762 115.462C57.182 115.509 56.9816 115.786 57.0285 116.08C57.0753 116.374 57.3517 116.575 57.6459 116.528C57.9404 116.481 58.1409 116.205 58.0941 115.91Z" fill="#000D3E" />
            <path id="path300" d="M58.7991 120.322C58.7522 120.027 58.4758 119.827 58.1813 119.874C57.8871 119.92 57.6866 120.197 57.7335 120.491C57.7804 120.785 58.0568 120.986 58.351 120.939C58.6455 120.892 58.846 120.616 58.7991 120.322Z" fill="#000D3E" />
            <path id="path302" d="M59.5023 124.733C59.4554 124.439 59.1789 124.238 58.8844 124.285C58.5902 124.332 58.3898 124.608 58.4367 124.903C58.4835 125.197 58.7599 125.398 59.0541 125.351C59.3486 125.304 59.5491 125.027 59.5023 124.733Z" fill="#000D3E" />
            <path id="path304" d="M60.2015 129.146C60.1546 128.852 59.8782 128.651 59.5836 128.698C59.2895 128.745 59.0891 129.021 59.1359 129.316C59.1827 129.61 59.4591 129.81 59.7533 129.763C60.0478 129.716 60.2483 129.44 60.2015 129.146Z" fill="#000D3E" />
            <path id="path306" d="M60.9046 133.557C60.8578 133.263 60.5813 133.062 60.2868 133.109C59.9926 133.156 59.7922 133.433 59.839 133.727C59.8859 134.021 60.1623 134.221 60.4564 134.174C60.751 134.128 60.9514 133.851 60.9046 133.557Z" fill="#000D3E" />
            <path id="path308" d="M56.0159 77.8724C55.969 77.5779 55.6926 77.377 55.3984 77.4239C55.1042 77.4707 54.9034 77.7476 54.9503 78.0421C54.9972 78.3363 55.274 78.5367 55.5681 78.4898C55.8623 78.443 56.0628 78.1666 56.0159 77.8724Z" fill="#000D3E" />
            <path id="path310" d="M56.7171 82.2845C56.6702 81.99 56.3938 81.7895 56.0996 81.8364C55.8055 81.8832 55.6046 82.1597 55.6515 82.4542C55.6984 82.7484 55.9751 82.9488 56.2693 82.9019C56.5635 82.8551 56.7639 82.5787 56.7171 82.2845Z" fill="#000D3E" />
            <path id="path312" d="M57.4183 86.6962C57.3714 86.4016 57.095 86.2011 56.8008 86.248C56.5066 86.2948 56.3058 86.5713 56.3527 86.8658C56.3995 87.16 56.6763 87.3604 56.9705 87.3136C57.2646 87.2667 57.4651 86.9903 57.4183 86.6962Z" fill="#000D3E" />
            <path id="path314" d="M58.1234 91.1083C58.0765 90.8137 57.8 90.6132 57.5059 90.6601C57.2117 90.7069 57.0109 90.9834 57.0578 91.2779C57.1046 91.5721 57.3814 91.7725 57.6756 91.7257C57.9697 91.6788 58.1702 91.4024 58.1234 91.1083Z" fill="#000D3E" />
            <path id="path316" d="M58.8245 95.5194C58.7776 95.2249 58.5012 95.0244 58.207 95.0712C57.9129 95.1181 57.712 95.3945 57.7589 95.6891C57.8058 95.9832 58.0826 96.1837 58.3767 96.1368C58.6709 96.09 58.8714 95.8135 58.8245 95.5194Z" fill="#000D3E" />
            <path id="path318" d="M59.5257 99.9315C59.4789 99.6373 59.2024 99.4365 58.9082 99.4833C58.6141 99.5302 58.4133 99.807 58.4601 100.101C58.507 100.395 58.7837 100.596 59.0779 100.549C59.3721 100.502 59.5725 100.226 59.5257 99.9315Z" fill="#000D3E" />
            <path id="path320" d="M60.2288 104.343C60.1819 104.049 59.9055 103.848 59.6113 103.895C59.3172 103.942 59.1163 104.218 59.1632 104.512C59.21 104.807 59.4869 105.007 59.781 104.961C60.0752 104.914 60.2756 104.637 60.2288 104.343Z" fill="#000D3E" />
            <path id="path322" d="M60.9299 108.755C60.8831 108.461 60.6067 108.26 60.3125 108.307C60.0184 108.354 59.8175 108.63 59.8643 108.925C59.9112 109.219 60.188 109.419 60.4822 109.373C60.7764 109.326 60.9768 109.049 60.9299 108.755Z" fill="#000D3E" />
            <path id="path324" d="M61.635 113.166C61.5882 112.872 61.3118 112.671 61.0176 112.718C60.7234 112.765 60.5226 113.042 60.5694 113.336C60.6163 113.63 60.8931 113.831 61.1873 113.784C61.4814 113.737 61.6819 113.461 61.635 113.166Z" fill="#000D3E" />
            <path id="path326" d="M62.3381 117.578C62.2913 117.283 62.0149 117.083 61.7207 117.13C61.4266 117.177 61.2257 117.453 61.2726 117.747C61.3195 118.042 61.5962 118.242 61.8904 118.195C62.1846 118.149 62.385 117.872 62.3381 117.578Z" fill="#000D3E" />
            <path id="path328" d="M63.0393 121.99C62.9925 121.696 62.716 121.495 62.4219 121.542C62.1277 121.589 61.9269 121.865 61.9737 122.159C62.0206 122.454 62.2974 122.654 62.5916 122.608C62.8857 122.561 63.0862 122.284 63.0393 121.99Z" fill="#000D3E" />
            <path id="path330" d="M63.7405 126.401C63.6936 126.107 63.4172 125.906 63.1231 125.953C62.8289 126 62.6281 126.276 62.6749 126.571C62.7218 126.865 62.9986 127.065 63.2927 127.019C63.5869 126.972 63.7874 126.695 63.7405 126.401Z" fill="#000D3E" />
            <path id="path332" d="M64.4455 130.813C64.3987 130.519 64.1222 130.318 63.828 130.365C63.5339 130.412 63.3331 130.689 63.3799 130.983C63.4268 131.277 63.7037 131.478 63.9978 131.431C64.292 131.384 64.4924 131.108 64.4455 130.813Z" fill="#000D3E" />
            <path id="path334" d="M60.2326 79.3814C60.1858 79.0873 59.9094 78.8868 59.6152 78.9336C59.3207 78.9805 59.1202 79.257 59.167 79.5511C59.2139 79.8457 59.4904 80.0465 59.7849 79.9996C60.0791 79.9528 60.2795 79.676 60.2326 79.3814Z" fill="#000D3E" />
            <path id="path336" d="M60.9338 83.7936C60.8869 83.4994 60.6105 83.2989 60.3164 83.3458C60.0218 83.3927 59.8214 83.6691 59.8682 83.9632C59.9151 84.2578 60.1916 84.4586 60.4861 84.4117C60.7803 84.3649 60.9807 84.0881 60.9338 83.7936Z" fill="#000D3E" />
            <path id="path338" d="M61.637 88.2055C61.5901 87.911 61.3137 87.7105 61.0195 87.7574C60.725 87.8043 60.5245 88.0807 60.5714 88.3752C60.6182 88.6694 60.8947 88.8702 61.1892 88.8233C61.4834 88.7765 61.6838 88.4997 61.637 88.2055Z" fill="#000D3E" />
            <path id="path340" d="M62.3381 92.6176C62.2912 92.3231 62.0148 92.1226 61.7207 92.1695C61.4261 92.2164 61.2257 92.4928 61.2726 92.7873C61.3194 93.0815 61.5959 93.2823 61.8904 93.2354C62.1846 93.1886 62.385 92.9118 62.3381 92.6176Z" fill="#000D3E" />
            <path id="path342" d="M63.0393 97.0288C62.9924 96.7342 62.716 96.5338 62.4218 96.5806C62.1273 96.6275 61.9268 96.9039 61.9737 97.1985C62.0206 97.4926 62.297 97.6935 62.5916 97.6466C62.8857 97.5997 63.0862 97.3229 63.0393 97.0288Z" fill="#000D3E" />
            <path id="path344" d="M63.7444 101.44C63.6975 101.146 63.4211 100.945 63.1269 100.992C62.8324 101.039 62.6319 101.316 62.6788 101.61C62.7256 101.904 63.0021 102.105 63.2967 102.058C63.5908 102.011 63.7912 101.735 63.7444 101.44Z" fill="#000D3E" />
            <path id="path346" d="M64.4456 105.853C64.3987 105.558 64.1222 105.358 63.8281 105.404C63.5336 105.451 63.3331 105.728 63.38 106.022C63.4268 106.316 63.7033 106.517 63.9978 106.47C64.292 106.423 64.4924 106.147 64.4456 105.853Z" fill="#000D3E" />
            <path id="path348" d="M65.1487 110.264C65.1018 109.969 64.8254 109.769 64.5312 109.815C64.2367 109.862 64.0362 110.139 64.0831 110.433C64.1299 110.727 64.4064 110.928 64.701 110.881C64.9951 110.835 65.1955 110.558 65.1487 110.264Z" fill="#000D3E" />
            <path id="path350" d="M65.8519 114.675C65.805 114.381 65.5286 114.18 65.2344 114.227C64.9399 114.274 64.7394 114.55 64.7863 114.845C64.8331 115.139 65.1095 115.339 65.4041 115.293C65.6982 115.246 65.8987 114.969 65.8519 114.675Z" fill="#000D3E" />
            <path id="path352" d="M66.555 119.087C66.5081 118.793 66.2317 118.592 65.9375 118.639C65.643 118.686 65.4425 118.962 65.4894 119.257C65.5362 119.551 65.8127 119.752 66.1072 119.705C66.4014 119.658 66.6018 119.381 66.555 119.087Z" fill="#000D3E" />
            <path id="path354" d="M67.2562 123.498C67.2093 123.204 66.9329 123.003 66.6387 123.05C66.3442 123.097 66.1437 123.374 66.1906 123.668C66.2374 123.962 66.5138 124.163 66.8084 124.116C67.1025 124.069 67.303 123.793 67.2562 123.498Z" fill="#000D3E" />
            <path id="path356" d="M67.9593 127.911C67.9125 127.616 67.636 127.415 67.3418 127.462C67.0473 127.509 66.8469 127.786 66.8937 128.08C66.9405 128.374 67.217 128.575 67.5115 128.528C67.8057 128.481 68.0061 128.205 67.9593 127.911Z" fill="#000D3E" />
            <path id="path358" d="M68.6605 132.322C68.6136 132.028 68.3372 131.827 68.043 131.874C67.7485 131.921 67.548 132.198 67.5949 132.492C67.6417 132.786 67.9181 132.986 68.2127 132.94C68.5068 132.893 68.7073 132.616 68.6605 132.322Z" fill="#000D3E" />
            <path id="path360" d="M58.6119 69.5791C58.495 68.8448 57.8048 68.3442 57.0705 68.4611C56.3362 68.5781 55.8353 69.2683 55.9522 70.0026C56.0692 70.7373 56.7598 71.2381 57.4941 71.1212C58.2284 71.0043 58.7289 70.3137 58.6119 69.5791Z" fill="#000D3E" />
            <path id="path362" d="M24.1687 143.926C24.0517 143.191 23.3611 142.69 22.6268 142.807C21.8926 142.924 21.392 143.614 21.509 144.349C21.6258 145.083 22.3161 145.584 23.0504 145.467C23.7847 145.35 24.2855 144.659 24.1687 143.926Z" fill="#000D3E" />
            <path id="path364" d="M69.3054 136.738C69.1884 136.003 68.4982 135.503 67.7639 135.62C67.0296 135.737 66.5287 136.427 66.6457 137.162C66.7626 137.895 67.4532 138.396 68.1875 138.279C68.9218 138.162 69.4223 137.472 69.3054 136.738Z" fill="#000D3E" />
            <path id="path366" d="M37.6191 74.2862L38.362 74.1679C38.0915 72.4717 36.4989 71.3166 34.8033 71.5862C33.1071 71.8567 31.9524 73.4496 32.2221 75.1456C32.4925 76.841 34.0847 77.9962 35.7811 77.7265C37.4765 77.4561 38.6316 75.8635 38.362 74.1679L37.6191 74.2862L36.8763 74.4045C36.9459 74.8439 36.8326 75.2634 36.5908 75.5985C36.3477 75.9324 35.9842 76.1704 35.5445 76.2408C35.1043 76.3105 34.6852 76.1971 34.3501 75.9553C34.0161 75.7118 33.7782 75.3487 33.7078 74.909C33.6381 74.4688 33.7518 74.0493 33.9932 73.7142C34.2367 73.3803 34.5998 73.1423 35.0399 73.0719C35.4797 73.0022 35.8988 73.1156 36.2339 73.3574C36.5678 73.6009 36.8059 73.9644 36.8763 74.4045L37.6191 74.2862Z" fill="#000D3E" />
        </g>
        <g id="aqqabag">
            <path id="path14_2" d="M109.724 42.8323V42.084H62.8208V32.3114H108.976V42.8323H109.724V42.084V42.8323H110.472V31.5631C110.472 31.3663 110.392 31.1736 110.253 31.0341C110.113 30.8949 109.921 30.8148 109.724 30.8148H62.0725C61.8753 30.8148 61.6827 30.8949 61.5435 31.0341C61.4039 31.1736 61.3242 31.3663 61.3242 31.5631V42.8323C61.3242 43.0291 61.4039 43.2218 61.5435 43.3613C61.6827 43.5005 61.8753 43.5806 62.0725 43.5806H109.724C109.921 43.5806 110.113 43.5005 110.253 43.3613C110.392 43.2218 110.472 43.0291 110.472 42.8323H109.724Z" fill="#000D3E" />
            <path id="path16_2" d="M99.3594 62.6121V61.8638H72.9233L65.0274 43.5798H106.764L98.6725 62.3154L99.3594 62.6121V61.8638V62.6121L100.046 62.9088L108.589 43.1286C108.689 42.8963 108.666 42.6318 108.527 42.4208C108.389 42.2097 108.155 42.0837 107.902 42.0837H63.8893C63.6364 42.0837 63.4025 42.2097 63.2637 42.4208C63.1249 42.6318 63.1021 42.8963 63.2024 43.1286L71.7444 62.9088C71.8626 63.1823 72.1335 63.3604 72.4313 63.3604H99.3594C99.6576 63.3604 99.9285 63.1823 100.046 62.9088L99.3594 62.6121" fill="#000D3E" />
            <path id="path18_2" d="M112.509 30.8145H59.2854C58.872 30.8145 58.5371 31.1497 58.5371 31.5628C58.5371 31.9762 58.872 32.311 59.2854 32.311H112.509C112.922 32.311 113.257 31.9762 113.257 31.5628C113.257 31.1497 112.922 30.8145 112.509 30.8145Z" fill="#000D3E" />
            <path id="path20_2" d="M85.9139 18.6492V17.9009C85.7964 17.9009 85.6789 17.896 85.5622 17.8863H85.5626C84.4895 17.798 83.5987 17.2955 82.9544 16.548C82.312 15.8008 81.9353 14.8086 81.936 13.785C81.936 13.2806 82.0262 12.7688 82.2196 12.2678L86.0243 2.42115L85.9102 2.37701L85.9749 2.47727L86.0243 2.42078L85.9102 2.37701L85.9749 2.47727L85.9139 2.38262V2.49673L85.9749 2.47727L85.9139 2.38262V2.49673V2.38262L85.8525 2.47727L85.9139 2.49673V2.38262L85.8525 2.47727L85.9173 2.37701L85.8035 2.42115L85.8525 2.47727L85.9173 2.37701L85.8035 2.42115L89.6082 12.2678C89.8016 12.7688 89.8914 13.281 89.8918 13.785C89.8925 14.8086 89.5154 15.8008 88.8734 16.548C88.2287 17.2955 87.3383 17.798 86.2652 17.8863C86.1489 17.896 86.0314 17.9009 85.9139 17.9009V18.6492V19.3975C86.0736 19.3975 86.2312 19.3907 86.3861 19.378C87.8684 19.2594 89.1349 18.544 90.0089 17.5226C90.8847 16.5012 91.3872 15.1734 91.3883 13.785C91.3883 13.1022 91.2652 12.4048 91.0041 11.7287L87.1994 1.88164C87.0932 1.60328 86.8979 1.36945 86.6663 1.22129C86.4347 1.07126 86.1728 1.00016 85.9139 1.00016C85.655 1.00016 85.3931 1.07125 85.1615 1.22091C84.9299 1.36945 84.7342 1.60328 84.628 1.88202L80.8237 11.7287C80.5622 12.4044 80.4395 13.1022 80.4395 13.785C80.4402 15.1734 80.9427 16.5012 81.8189 17.5226C82.6925 18.544 83.959 19.2594 85.4414 19.378H85.4417C85.5966 19.3907 85.7541 19.3975 85.9139 19.3975V18.6492" fill="#000D3E" />
            <path id="path22_2" d="M85.9143 16.8999C87.6889 16.8995 89.1263 15.4617 89.1267 13.6871C89.1267 13.2741 88.7915 12.9389 88.3784 12.9389C87.965 12.9389 87.6301 13.2741 87.6301 13.6871C87.6297 14.1634 87.4393 14.5877 87.1276 14.9009C86.8149 15.2125 86.3906 15.403 85.9143 15.4033C85.5009 15.4033 85.166 15.7382 85.166 16.1516C85.166 16.565 85.5009 16.8999 85.9143 16.8999" fill="#000D3E" />
            <path id="path24_2" d="M90.6009 68.2644V67.5161H81.938V63.5255H89.8526V68.2644H90.6009V67.5161V68.2644H91.3491V62.7772C91.3491 62.5801 91.2694 62.3874 91.1299 62.2482C90.9907 62.1087 90.798 62.029 90.6009 62.029H81.1897C80.9925 62.029 80.7998 62.1087 80.6607 62.2482C80.5211 62.3874 80.4414 62.5801 80.4414 62.7772V68.2644C80.4414 68.4616 80.5211 68.6543 80.6607 68.7934C80.7998 68.933 80.9925 69.0127 81.1897 69.0127H90.6009C90.798 69.0127 90.9907 68.933 91.1299 68.7934C91.2694 68.6543 91.3491 68.4616 91.3491 68.2644H90.6009Z" fill="#000D3E" />
            <path id="path26_2" d="M84.4184 84.01V69.0133H87.3727V80.349C87.3727 80.7625 87.7079 81.0973 88.1209 81.0973C88.5344 81.0973 88.8692 80.7625 88.8692 80.349V68.265C88.8692 68.0678 88.7895 67.8752 88.65 67.736C88.5108 67.5968 88.3181 67.5167 88.1209 67.5167H83.6702C83.473 67.5167 83.2803 67.5964 83.1411 67.736C83.0016 67.8752 82.9219 68.0678 82.9219 68.265V84.01C82.9219 84.4234 83.2567 84.7583 83.6702 84.7583C84.0832 84.7583 84.4184 84.4234 84.4184 84.01Z" fill="#000D3E" />
            <path id="path28_2" d="M87.3125 83.5946V85.5061C87.3125 85.9195 87.6477 86.2544 88.0608 86.2544C88.4742 86.2544 88.8091 85.9195 88.8091 85.5061V83.5946C88.8091 83.1812 88.4742 82.8463 88.0608 82.8463C87.6477 82.8463 87.3125 83.1812 87.3125 83.5946Z" fill="#000D3E" />
            <path id="path30_2" d="M67.9573 16.1514H67.209V17.7303C67.209 17.9952 67.3478 18.2388 67.5756 18.3738L69.1272 19.2931C69.336 19.4169 69.5953 19.4315 69.8164 19.3316L72.5869 18.0824C72.8103 17.9817 72.9689 17.7804 73.0145 17.5395C73.0602 17.2986 72.9861 17.0531 72.8148 16.8776L71.5958 15.6288C71.558 15.5898 71.5247 15.5622 71.4798 15.5319L70.5377 14.8943C70.3518 14.7682 70.1217 14.7327 69.9066 14.7963L67.7455 15.4338C67.4267 15.5277 67.209 15.8192 67.209 16.1514H67.9573L68.169 16.869L69.9911 16.3314L70.5781 16.7284L70.9968 17.1575L69.5556 17.8074L68.7056 17.3038V16.1514H67.9573L68.169 16.869L67.9573 16.1514" fill="#000D3E" />
            <path id="path32_2" d="M97.8282 10.3102L98.2356 10.9376L99.5601 10.0786C99.7823 9.9342 99.9114 9.68502 99.9005 9.42013L99.8272 7.61826C99.8171 7.37582 99.6884 7.15059 99.4841 7.01926L98.1941 6.18978C97.9651 6.04237 97.674 6.03116 97.4346 6.16023L95.7846 7.04882C95.547 7.17678 95.3962 7.42334 95.391 7.69309L95.3693 8.8301C95.3648 9.05459 95.4598 9.26673 95.6304 9.41302L97.3414 10.8785C97.5939 11.0944 97.9569 11.1187 98.2356 10.9376L97.8282 10.3102L98.3149 9.74189L96.8722 8.5061L96.879 8.1589L97.7556 7.6871L98.3475 8.06761L98.3879 9.05496L97.4211 9.6824L97.8282 10.3102L98.3149 9.74189L97.8282 10.3102" fill="#000D3E" />
            <path id="path34_2" d="M93.7784 23.9358L93.1372 23.5508L92.4719 24.659C92.2665 25.0013 92.366 25.4447 92.6987 25.6666L95.0254 27.2178C95.2772 27.3857 95.6039 27.3857 95.8557 27.2178L97.8506 25.8884C98.0586 25.7496 98.1839 25.5158 98.1839 25.2655V23.9358C98.1839 23.8265 98.1608 23.7214 98.1151 23.6223L97.4499 22.1814C97.3661 22 97.2116 21.8582 97.0237 21.7908C96.8356 21.7231 96.626 21.734 96.4461 21.8208L93.4541 23.2616C93.3224 23.3248 93.212 23.4255 93.1372 23.5508L93.7784 23.9358L94.1032 24.61L96.4101 23.4992L96.6874 24.1V24.8652L95.4407 25.6958L94.1223 24.8169L94.4201 24.3208L93.7784 23.9358L94.1032 24.61L93.7784 23.9358" fill="#000D3E" />
        </g>
        <g id="aqqacube">
            <g id="g12">
                <path id="path14_3" d="M166.969 92.0355L157.128 148.233C156.973 149.116 156.465 149.847 155.754 150.329C155.043 150.808 154.137 151.026 153.197 150.862L102.621 142.005C101.682 141.84 100.904 141.327 100.398 140.634C99.8927 139.94 99.664 139.08 99.8179 138.197L111.582 71.0199C111.738 70.1368 112.245 69.4053 112.956 68.9243C113.667 68.4451 114.573 68.2269 115.513 68.3911L155.366 75.3702C155.748 75.4372 156.112 75.1816 156.179 74.7991C156.246 74.4168 155.991 74.0523 155.608 73.9854L115.755 67.0062C114.453 66.778 113.176 67.08 112.17 67.7589C111.164 68.4359 110.421 69.5008 110.197 70.7774L98.433 137.954C98.2092 139.231 98.5465 140.485 99.2623 141.463C99.9777 142.444 101.076 143.161 102.379 143.389L152.955 152.246C154.257 152.475 155.534 152.173 156.54 151.494C157.546 150.817 158.29 149.752 158.513 148.476L168.354 92.2781C168.421 91.8958 168.166 91.5314 167.783 91.4644C167.401 91.3974 167.037 91.6534 166.97 92.0356" fill="#000D3E" />
                <path id="path16_3" d="M147.521 135.295L147.642 134.603L113.375 128.602C113.174 128.566 113.013 128.457 112.904 128.303C112.796 128.147 112.748 127.958 112.782 127.758L120.135 85.7706C120.171 85.5705 120.28 85.4092 120.434 85.3002C120.59 85.1925 120.779 85.1442 120.979 85.179L155.247 91.18C155.447 91.2155 155.608 91.3251 155.717 91.4791C155.825 91.6339 155.873 91.8226 155.839 92.0231L148.486 134.011C148.45 134.211 148.341 134.372 148.187 134.481C148.032 134.589 147.843 134.638 147.642 134.603L147.521 135.295L147.4 135.988C148.562 136.191 149.667 135.414 149.871 134.253L157.224 92.2656C157.427 91.104 156.651 89.9989 155.489 89.7951L121.222 83.7941C120.06 83.591 118.955 84.3666 118.751 85.5281L111.398 127.516C111.195 128.677 111.971 129.783 113.132 129.986L147.4 135.988L147.521 135.295Z" fill="#000D3E" />
                <path id="path18_3" d="M124.006 90.6241L118.029 124.754C117.962 125.136 118.218 125.501 118.601 125.568C118.983 125.634 119.347 125.379 119.414 124.996L125.391 90.8667C125.458 90.4841 125.202 90.1199 124.82 90.053C124.438 89.986 124.073 90.2416 124.006 90.6241Z" fill="#000D3E" />
                <path id="path20_3" d="M129.038 91.5045L123.061 125.634C122.994 126.017 123.249 126.381 123.632 126.448C124.014 126.515 124.379 126.259 124.446 125.877L130.423 91.747C130.49 91.3645 130.234 91.0003 129.851 90.9333C129.469 90.8663 129.105 91.1219 129.038 91.5045Z" fill="#000D3E" />
                <path id="path22_3" d="M134.067 92.3859L128.09 126.516C128.023 126.898 128.279 127.262 128.661 127.329C129.044 127.396 129.408 127.141 129.475 126.758L135.452 92.6284C135.519 92.2458 135.263 91.8817 134.881 91.8147C134.498 91.7478 134.134 92.0033 134.067 92.3859Z" fill="#000D3E" />
                <path id="path24_3" d="M139.098 93.2667L133.121 127.396C133.054 127.779 133.31 128.143 133.692 128.21C134.075 128.277 134.439 128.022 134.506 127.639L140.483 93.5093C140.55 93.1267 140.294 92.7625 139.912 92.6956C139.53 92.6286 139.165 92.8842 139.098 93.2667Z" fill="#000D3E" />
                <path id="path26_3" d="M144.131 94.1476L138.154 128.277C138.087 128.66 138.343 129.024 138.726 129.091C139.108 129.158 139.472 128.902 139.539 128.52L145.516 94.3901C145.583 94.0075 145.327 93.6433 144.945 93.5764C144.563 93.5094 144.198 93.765 144.131 94.1476Z" fill="#000D3E" />
                <path id="path28_3" d="M149.161 95.0289L143.184 129.159C143.117 129.541 143.372 129.905 143.755 129.972C144.137 130.039 144.502 129.784 144.569 129.401L150.546 95.2715C150.613 94.8889 150.357 94.5247 149.974 94.4578C149.592 94.3908 149.228 94.6464 149.161 95.0289Z" fill="#000D3E" />
                <path id="path30_3" d="M141.177 80.3719L141.039 79.6823C140.56 79.7786 140.029 79.7765 139.522 79.6874C139.06 79.6068 138.619 79.4536 138.258 79.2544C137.896 79.0562 137.619 78.8126 137.46 78.5744C137.375 78.4497 137.329 78.3392 137.306 78.2441C137.283 78.1488 137.282 78.0683 137.295 77.9896C137.322 77.8395 137.409 77.6739 137.623 77.5003C137.834 77.3296 138.169 77.1681 138.618 77.0794C139.097 76.9832 139.629 76.9849 140.136 77.0741C140.598 77.155 141.039 77.3079 141.4 77.507C141.761 77.7052 142.038 77.9489 142.198 78.187C142.282 78.3113 142.328 78.4219 142.352 78.5169C142.375 78.6123 142.376 78.6928 142.363 78.7715C142.335 78.9219 142.248 79.0875 142.034 79.261C141.824 79.4321 141.488 79.5933 141.039 79.6823L141.177 80.3719L141.314 81.0611C141.944 80.9351 142.488 80.7 142.916 80.3564C143.342 80.0157 143.654 79.5494 143.747 79.0139C143.795 78.7425 143.785 78.4588 143.718 78.1848C143.651 77.9102 143.529 77.6455 143.362 77.3985C143.04 76.9261 142.59 76.5578 142.077 76.275C141.564 75.9932 140.984 75.796 140.378 75.6895C139.714 75.5735 139.017 75.5665 138.343 75.7003C137.713 75.8262 137.169 76.0614 136.741 76.405C136.315 76.7457 136.003 77.2121 135.91 77.7471C135.862 78.0188 135.872 78.3025 135.94 78.5769C136.006 78.8513 136.128 79.1159 136.296 79.363C136.617 79.8353 137.068 80.2032 137.58 80.4864C138.093 80.7686 138.673 80.9658 139.279 81.0723C139.943 81.1883 140.64 81.195 141.314 81.0611L141.177 80.3719Z" fill="#000D3E" />
                <path id="path32_3" d="M169.725 72.0511L168.856 77.0117C168.824 77.1938 168.867 77.3854 168.973 77.5367L171.442 81.0535C171.665 81.3713 172.103 81.4481 172.421 81.225C172.739 81.002 172.815 80.5633 172.592 80.2456L170.291 76.9671L171.11 72.2935C171.177 71.9109 170.921 71.5468 170.539 71.4799C170.156 71.4129 169.792 71.6685 169.725 72.0511" fill="#000D3E" />
                <path id="path34_3" d="M120.694 84.4045L113.007 68.1781C112.84 67.8274 112.421 67.6777 112.071 67.8439C111.72 68.0101 111.57 68.4292 111.736 68.7802L119.424 85.0067C119.59 85.3576 120.009 85.507 120.36 85.3408C120.711 85.1746 120.86 84.7555 120.694 84.4045Z" fill="#000D3E" />
                <path id="path36_2" d="M156.784 91.5692L162.385 86.01C162.661 85.7367 162.662 85.2916 162.388 85.0161C162.115 84.7402 161.67 84.7386 161.394 85.0122L155.793 90.5714C155.518 90.845 155.516 91.29 155.789 91.5656C156.063 91.8412 156.508 91.8428 156.784 91.5692Z" fill="#000D3E" />
                <path id="path38_2" d="M147.86 135.418L155.382 151.297C155.548 151.648 155.968 151.798 156.319 151.632C156.67 151.465 156.819 151.046 156.653 150.695L149.13 134.817C148.964 134.466 148.545 134.316 148.194 134.482C147.843 134.648 147.693 135.068 147.86 135.418" fill="#000D3E" />
                <path id="path40_2" d="M111.901 128.338L99.4495 140.696C99.1739 140.97 99.172 141.415 99.4456 141.691C99.7192 141.966 100.164 141.968 100.44 141.694L112.892 129.336C113.167 129.062 113.169 128.617 112.896 128.342C112.622 128.066 112.177 128.064 111.901 128.338" fill="#000D3E" />
                <path id="path42_2" d="M178.725 78.2099L179.417 78.3312C180.289 73.3486 176.959 68.6039 171.977 67.7311C166.994 66.8589 162.249 70.1894 161.377 75.1718C160.504 80.1536 163.835 84.8988 168.817 85.7716C173.799 86.6437 178.544 83.3128 179.417 78.3312L178.725 78.2099L178.032 78.0887C177.663 80.1992 176.476 81.9539 174.85 83.096C173.224 84.2364 171.17 84.756 169.06 84.3867C166.949 84.0167 165.194 82.8301 164.052 81.205C162.912 79.5786 162.392 77.525 162.761 75.4143C163.131 73.3035 164.318 71.5484 165.944 70.4067C167.57 69.2663 169.623 68.7467 171.734 69.116C173.845 69.486 175.6 70.6725 176.741 72.2977C177.882 73.9237 178.402 75.9777 178.032 78.0887L178.725 78.2099Z" fill="#000D3E" />
            </g>
        </g>
    </g>
    <defs>
        <filter id="filter0_d" x="0.564453" y="0" width="186.433" height="161.542" filterUnits="userSpaceOnUse" color-interpolation-filters="sRGB">
            <feFlood flood-opacity="0" result="BackgroundImageFix" />
            <feColorMatrix in="SourceAlpha" type="matrix" values="0 0 0 0 0 0 0 0 0 0 0 0 0 0 0 0 0 0 127 0" />
            <feOffset dx="2" dy="3" />
            <feGaussianBlur stdDeviation="2" />
            <feColorMatrix type="matrix" values="0 0 0 0 0 0 0 0 0 0.0509804 0 0 0 0 0.243137 0 0 0 0.18 0" />
            <feBlend mode="normal" in2="BackgroundImageFix" result="effect1_dropShadow" />
            <feBlend mode="normal" in="SourceGraphic" in2="effect1_dropShadow" result="shape" />
        </filter>
    </defs>
</svg>
